<svg width="81" height="79" viewBox="0 0 81 79" fill="none" xmlns="http://www.w3.org/2000/svg">
<g clip-path="url(#clip0_5382_19216)">
<path d="M71.7609 37.0074C71.733 36.8522 71.7012 36.693 71.6654 36.5378C71.6336 36.3946 71.6017 36.2593 71.5619 36.116C71.5381 36.0245 71.5102 35.929 71.4823 35.8375C71.4625 35.7619 71.4386 35.6783 71.4147 35.6027C71.363 35.4475 71.3152 35.2963 71.2555 35.1411C71.2038 34.9859 71.1441 34.8387 71.0804 34.6835C71.0804 34.6835 71.0804 34.6755 71.0804 34.6676C71.0207 34.5203 70.9531 34.3731 70.8894 34.2258C70.8218 34.0746 70.7462 33.9274 70.6745 33.7762C70.6029 33.6329 70.5233 33.4897 70.4477 33.3464C70.4358 33.3225 70.4238 33.3026 70.4119 33.2827C70.3403 33.1514 70.2607 33.0201 70.1851 32.8967C70.014 32.6063 69.823 32.3197 69.624 32.0332C69.5245 31.886 69.421 31.7507 69.3176 31.6074C69.1067 31.3289 68.8838 31.0464 68.6491 30.7758C68.5297 30.6365 68.4103 30.5052 68.2869 30.3659C68.0442 30.1033 67.7935 29.8406 67.5309 29.578C67.5229 29.566 67.511 29.5541 67.495 29.5422C67.3677 29.4188 67.2364 29.2954 67.109 29.1761C65.7203 27.8868 64.0648 26.7128 62.1906 25.6623C62.1906 25.6623 62.1906 25.6623 62.1826 25.6623V25.6543C62.1428 23.028 61.7648 20.6085 61.0445 18.4995C60.9888 18.3403 60.9291 18.1772 60.8734 18.018C60.6307 17.3853 60.3641 16.7804 60.0577 16.2074C59.986 16.0641 59.9025 15.9248 59.8229 15.7856C59.7473 15.6463 59.6637 15.511 59.5762 15.3757C59.5005 15.2523 59.421 15.129 59.3414 15.0096C59.2339 14.8504 59.1265 14.6952 59.0111 14.544C58.9315 14.4326 58.8479 14.3252 58.7604 14.2177C58.6609 14.0904 58.5574 13.963 58.45 13.8437C58.3545 13.7322 58.259 13.6248 58.1595 13.5213C58.0362 13.386 57.9088 13.2587 57.7815 13.1353C57.6939 13.0478 57.6024 12.9602 57.5109 12.8767C56.9458 12.3633 56.333 11.9097 55.6684 11.5277C53.826 10.4612 51.7369 9.99563 49.5005 10.0593C49.389 10.0593 49.2816 10.0673 49.1702 10.0712C49.019 10.0792 48.8757 10.0911 48.7245 10.1031C48.6966 10.1031 48.6728 10.1031 48.6529 10.111C48.4658 10.1269 48.2748 10.1468 48.0759 10.1667C48.0599 10.1667 48.044 10.1667 48.0281 10.1747C47.853 10.1986 47.6739 10.2225 47.4988 10.2503C47.4471 10.2583 47.4033 10.2662 47.3556 10.2742C47.2004 10.302 47.0492 10.3259 46.894 10.3577C46.7945 10.3776 46.691 10.4015 46.5876 10.4214C46.3846 10.4652 46.1857 10.509 45.9827 10.5647C45.8315 10.6005 45.6803 10.6403 45.5291 10.6841C45.5171 10.6841 45.5092 10.6841 45.5012 10.692C45.2903 10.7477 45.0834 10.8114 44.8725 10.8751C44.8725 10.8751 44.8725 10.8751 44.8645 10.8751C44.6496 10.9427 44.4387 11.0143 44.2239 11.0899C43.7583 11.2491 43.2967 11.4282 42.8271 11.6272C42.6361 11.7067 42.4451 11.7903 42.2541 11.8818C42.2461 11.8818 42.2421 11.8818 42.2382 11.8898C42.0312 11.9813 41.8203 12.0808 41.6134 12.1803C41.5298 12.2201 41.4502 12.2559 41.3707 12.2997C40.9966 12.4867 40.6225 12.6817 40.2485 12.8926C40.0256 13.012 39.8068 13.1393 39.5879 13.2666C36.7467 11.4958 33.8975 10.3259 31.2034 9.85237C29.2655 9.51413 27.4111 9.53005 25.692 9.93992C25.5926 9.96379 25.4971 9.99165 25.4016 10.0155C25.2145 10.0673 25.0275 10.119 24.8365 10.1787C24.1321 10.4095 23.4517 10.7079 22.803 11.082C22.2579 11.3964 21.7485 11.7585 21.271 12.1564C21.0322 12.3594 20.8014 12.5703 20.5866 12.7891C20.4751 12.9005 20.3637 13.012 20.2602 13.1274C19.8345 13.593 19.4445 14.0904 19.0863 14.6276C18.9073 14.8942 18.7362 15.1728 18.577 15.4593C16.9614 18.3284 16.2013 22.061 16.2889 26.295C16.2889 26.295 16.2889 26.295 16.2889 26.303C13.6108 27.9544 11.45 29.8923 9.95773 32.0213C9.8662 32.1566 9.77468 32.2879 9.68713 32.4232C9.59958 32.5585 9.51602 32.6938 9.42847 32.8291C9.34889 32.9644 9.2693 33.0957 9.19369 33.231C9.18573 33.239 9.18175 33.243 9.18175 33.2509C9.11013 33.3862 9.03054 33.5175 8.96289 33.6568C8.89922 33.7841 8.83157 33.9155 8.77586 34.0388C8.75994 34.0627 8.75198 34.0826 8.74005 34.1025C8.68036 34.2338 8.62067 34.3651 8.56893 34.4964C8.5172 34.6118 8.46945 34.7272 8.42568 34.8426C8.39782 34.8984 8.37395 34.958 8.35803 35.0177C8.31426 35.1292 8.27844 35.2446 8.23865 35.356C8.18692 35.4953 8.14712 35.6345 8.10335 35.7738C8.04764 35.9569 7.99591 36.1439 7.95214 36.3309C7.92428 36.4423 7.90041 36.5577 7.87653 36.6731C7.81684 36.9597 7.76511 37.2541 7.72531 37.5486C7.70542 37.7078 7.68552 37.863 7.67358 38.0182C7.64573 38.3166 7.63379 38.619 7.63379 38.9255C7.63379 39.2319 7.64971 39.5621 7.67756 39.8805C7.70542 40.167 7.73725 40.4575 7.78898 40.744C7.80888 40.8634 7.83276 40.9868 7.85663 41.1061C7.85663 41.1459 7.87255 41.1817 7.88051 41.2215C7.89643 41.3011 7.91632 41.3847 7.93622 41.4722C7.98795 41.6871 8.04366 41.902 8.10733 42.1169C8.13917 42.2283 8.17498 42.3357 8.21079 42.4472C8.22273 42.479 8.23069 42.5069 8.24263 42.5387C8.28242 42.6501 8.31824 42.7576 8.36201 42.869C8.42568 43.0441 8.50129 43.2231 8.57689 43.3982C8.6326 43.5335 8.69627 43.6648 8.75994 43.8041C8.82361 43.9434 8.89524 44.0787 8.96687 44.222V44.2299C9.0385 44.3692 9.11808 44.5045 9.19369 44.6398C9.26532 44.7711 9.34491 44.9024 9.42449 45.0298C9.43245 45.0497 9.44041 45.0696 9.45633 45.0815C9.52 45.1889 9.59163 45.3004 9.65927 45.4078C9.69111 45.4595 9.71897 45.5073 9.75876 45.555C9.82641 45.6585 9.89804 45.762 9.96966 45.8654C10.2522 46.2673 10.5586 46.6613 10.8849 47.0513C10.9963 47.1786 11.1078 47.3099 11.2232 47.4333C12.6 48.9574 14.331 50.3621 16.3565 51.5997V51.6116C15.9267 57.8114 17.22 63.1039 20.2523 66.3988C20.9964 67.2027 21.844 67.8911 22.7991 68.4402C23.4477 68.8143 24.1242 69.1167 24.8325 69.3436C24.9161 69.3714 24.9957 69.3953 25.0832 69.4192C25.3538 69.5027 25.6324 69.5744 25.9109 69.634C26.1139 69.6818 26.3208 69.7176 26.5277 69.7494C26.5993 69.7654 26.6749 69.7773 26.7466 69.7853C28.1592 69.9882 29.6555 69.9444 31.2034 69.6738C32.0988 69.5186 33.018 69.2799 33.9452 68.9735C35.338 68.5079 36.7506 67.8752 38.1713 67.0952C38.6448 66.8326 39.1184 66.554 39.5919 66.2596L39.6038 66.2715C39.8187 66.3988 40.0376 66.5222 40.2525 66.6376C40.6265 66.8445 41.0006 67.0395 41.3746 67.2265C42.1267 67.6006 42.8749 67.9309 43.615 68.2134C43.7901 68.2811 43.9692 68.3487 44.1443 68.4084C44.391 68.4959 44.6297 68.5755 44.8765 68.6551C45.0834 68.7188 45.2943 68.7825 45.5012 68.8382C45.5092 68.8382 45.5211 68.8461 45.5291 68.8461C45.6803 68.8899 45.8315 68.9297 45.9827 68.9655C46.0902 68.9973 46.1936 69.0172 46.2971 69.0411C46.4523 69.0809 46.6075 69.1128 46.7627 69.1446C46.7905 69.1525 46.8144 69.1565 46.8383 69.1605C47.0094 69.1963 47.1845 69.2242 47.3556 69.256C47.4073 69.264 47.4511 69.2719 47.4988 69.2799C47.6739 69.3117 47.853 69.3356 48.0281 69.3555C48.044 69.3555 48.0599 69.3555 48.0759 69.3634C48.2708 69.3873 48.4618 69.4072 48.6529 69.4192C48.6767 69.4192 48.7046 69.4271 48.7245 69.4271C48.8757 69.4391 49.019 69.451 49.1702 69.459C49.2816 69.459 49.389 69.4709 49.5005 69.4709C51.7369 69.5385 53.83 69.069 55.6724 68.0025C57.5785 66.9002 59.0668 65.2568 60.1333 63.1955C61.6534 60.2547 62.3338 56.4704 62.1707 52.2204V52.2125C62.1707 52.2125 62.1707 52.2125 62.1786 52.2125C64.622 50.8436 66.6872 49.2558 68.2869 47.5049C68.4103 47.3696 68.5297 47.2383 68.6491 47.099C68.7645 46.9597 68.8799 46.8244 68.9913 46.6852C69.1027 46.5459 69.2101 46.4106 69.3176 46.2673C69.425 46.1241 69.5245 45.9848 69.624 45.8415C69.7235 45.6983 69.819 45.559 69.9145 45.4118C69.9821 45.3043 70.0538 45.1969 70.1174 45.0895C70.2328 44.9064 70.3403 44.7234 70.4398 44.5363C70.5193 44.3851 70.5989 44.2419 70.6745 44.0906C70.7462 43.9394 70.8218 43.7922 70.8894 43.641C70.9571 43.4858 71.0247 43.3385 71.0844 43.1833C71.1481 43.0321 71.2078 42.8809 71.2635 42.7257C71.3073 42.5984 71.351 42.471 71.3948 42.3477C71.554 41.8582 71.6773 41.3568 71.7689 40.8515C71.8206 40.5769 71.8564 40.2943 71.8843 40.0158C71.9241 39.6537 71.94 39.2915 71.94 38.9215C71.94 38.2689 71.8843 37.6242 71.7689 36.9915L71.7609 37.0074ZM55.2665 49.2479C53.7663 51.8424 52.1189 54.2459 50.3719 56.4266C47.0611 57.0951 43.4996 57.4533 39.7869 57.4533C35.7359 57.4533 31.86 57.0235 28.2906 56.2356C26.468 53.9912 24.7569 51.5081 23.201 48.8181C21.47 45.8177 20.0613 42.7735 18.9749 39.777C20.0613 36.7846 21.466 33.7404 23.201 30.736C25.2424 27.2063 27.5544 24.0308 30.0176 21.293C33.1016 20.7279 36.3806 20.4215 39.7909 20.4215C42.8828 20.4215 45.8793 20.6762 48.7126 21.1418C51.0763 23.8159 53.3047 26.8879 55.2705 30.2982C57.0891 33.4459 58.5495 36.6373 59.6478 39.777C58.5455 42.9128 57.0851 46.1082 55.2705 49.2518L55.2665 49.2479Z" fill="white"/>
<path style="mix-blend-mode:multiply" d="M23.2009 30.7361C21.4699 33.7365 20.0612 36.7807 18.9748 39.7772C20.0612 42.7697 21.4659 45.8139 23.2009 48.8183C24.7568 51.5083 26.4719 53.9954 28.2905 56.2358C23.7262 55.229 19.6553 53.6372 16.3644 51.6237C16.3644 51.6237 16.3644 51.6237 16.3564 51.6237C14.327 50.3821 12.596 48.9735 11.2271 47.4454C11.1117 47.318 11.0002 47.1867 10.8888 47.0634C10.5546 46.6774 10.2481 46.2794 9.97357 45.8775C9.90194 45.7741 9.83031 45.6706 9.76266 45.5671C9.72287 45.5194 9.69502 45.4716 9.66318 45.4199C9.59553 45.3125 9.5239 45.201 9.46023 45.0936C9.44432 45.0777 9.43636 45.0578 9.4284 45.0419C9.34881 44.9105 9.26923 44.7792 9.1976 44.6519C9.12199 44.5166 9.0424 44.3813 8.97078 44.242V44.2341C8.89915 44.0908 8.82752 43.9555 8.76385 43.8162C8.70018 43.6769 8.63651 43.5456 8.5808 43.4103C8.50519 43.2352 8.42958 43.0562 8.36592 42.8811C8.32214 42.7697 8.28633 42.6622 8.24653 42.5508C8.2346 42.519 8.22664 42.4911 8.2147 42.4593C8.17889 42.3478 8.14307 42.2404 8.11124 42.129C8.04757 41.9141 7.98788 41.6992 7.94013 41.4843C7.91625 41.4008 7.89635 41.3172 7.88441 41.2336C7.87646 41.1938 7.86452 41.158 7.86054 41.1182C7.83268 40.9988 7.80881 40.8755 7.79289 40.7561C7.74116 40.4696 7.70932 40.1791 7.68147 39.8926C7.65361 39.5742 7.6377 39.2559 7.6377 38.9375C7.6377 38.6192 7.64963 38.3327 7.67749 38.0303C7.68943 37.8751 7.70932 37.7199 7.72922 37.5607C7.76901 37.2702 7.81279 36.9757 7.88044 36.6852C7.90431 36.5698 7.93217 36.4544 7.95604 36.343C7.99982 36.16 8.04757 35.9729 8.10726 35.7859C8.15103 35.6466 8.19082 35.5074 8.24256 35.3681C8.28235 35.2567 8.31816 35.1413 8.36194 35.0298C8.38183 34.9701 8.40571 34.9105 8.42958 34.8547C8.47336 34.7393 8.52111 34.6239 8.57284 34.5085C8.62457 34.3772 8.68426 34.2459 8.74395 34.1146C8.75589 34.0907 8.76385 34.0708 8.77977 34.0509C8.83548 33.9236 8.90313 33.7923 8.9668 33.6689C9.03444 33.5296 9.11403 33.3983 9.18566 33.263C9.18566 33.255 9.18566 33.2511 9.1976 33.2431C9.27321 33.1078 9.35279 32.9765 9.43238 32.8412C9.51595 32.7059 9.59951 32.5706 9.69104 32.4353C9.77858 32.3 9.87011 32.1687 9.96163 32.0334C11.4499 29.8965 13.6107 27.9585 16.2928 26.3071C20.0095 24.019 24.717 22.2721 30.0215 21.2971C27.5583 24.0349 25.2463 27.2104 23.2049 30.7401L23.2009 30.7361Z" fill="url(#paint0_linear_5382_19216)"/>
<path style="mix-blend-mode:multiply" d="M71.9319 38.9375C71.9319 39.3036 71.912 39.6697 71.8762 40.0318C71.8484 40.3103 71.8126 40.5929 71.7608 40.8674C71.6693 41.3728 71.5459 41.8702 71.3868 42.3637C71.343 42.491 71.2992 42.6184 71.2555 42.7417C71.1997 42.8969 71.1401 43.0481 71.0764 43.1993C71.0167 43.3545 70.949 43.5018 70.8814 43.657C70.8137 43.8082 70.7381 43.9554 70.6665 44.1066C70.5909 44.2578 70.5113 44.4011 70.4317 44.5523C70.3322 44.7354 70.2248 44.9184 70.1094 45.1054C70.0457 45.2129 69.9741 45.3203 69.9065 45.4278C69.811 45.575 69.7154 45.7143 69.616 45.8575C69.5165 46.0008 69.417 46.1401 69.3096 46.2833C69.2021 46.4266 69.0947 46.5619 68.9833 46.7012C68.8718 46.8404 68.7564 46.9757 68.641 47.115C68.5216 47.2543 68.4023 47.3856 68.2789 47.5209C66.6872 49.2758 64.6219 50.8675 62.1706 52.2364C62.1706 52.2364 62.1706 52.2364 62.1627 52.2364C58.8479 54.0908 54.8327 55.5393 50.3719 56.4307C52.1188 54.254 53.7702 51.8504 55.2665 49.2519C57.085 46.1082 58.5454 42.9128 59.6437 39.7771C58.5415 36.6414 57.081 33.446 55.2665 30.2983C53.3007 26.892 51.0722 23.816 48.7085 21.1418C53.8458 21.9974 58.4539 23.5692 62.1826 25.6544H62.1905C64.0688 26.705 65.7242 27.8908 67.109 29.1761C67.2403 29.2955 67.3716 29.4189 67.495 29.5422C67.5109 29.5542 67.5228 29.5661 67.5308 29.5781C67.7934 29.8367 68.0481 30.0993 68.2869 30.366C68.4102 30.5052 68.5296 30.6366 68.649 30.7758C68.8877 31.0464 69.1106 31.329 69.3175 31.6075C69.421 31.7508 69.5244 31.8861 69.6239 32.0333C69.8269 32.3158 70.0099 32.6063 70.185 32.8968C70.2606 33.0242 70.3402 33.1555 70.4118 33.2828C70.4238 33.3067 70.4357 33.3266 70.4476 33.3465C70.5233 33.4897 70.6028 33.633 70.6745 33.7763C70.7461 33.9275 70.8217 34.0747 70.8894 34.2259C70.953 34.3732 71.0207 34.5204 71.0804 34.6676C71.0804 34.6756 71.0804 34.6796 71.0804 34.6835C71.144 34.8387 71.2037 34.986 71.2555 35.1412C71.3112 35.2964 71.3629 35.4476 71.4146 35.6028C71.4425 35.6784 71.4664 35.758 71.4823 35.8376C71.5141 35.9291 71.538 36.0246 71.5619 36.1161C71.6017 36.2594 71.6335 36.3947 71.6653 36.5379C71.7011 36.6971 71.733 36.8523 71.7608 37.0075C71.8762 37.6402 71.9319 38.2849 71.9319 38.9375Z" fill="url(#paint1_linear_5382_19216)"/>
<path style="mix-blend-mode:multiply" d="M30.0139 21.2932C27.5507 24.031 25.2387 27.2065 23.1973 30.7362C21.4662 33.7366 20.0576 36.7808 18.9712 39.7773C17.2641 35.0538 16.3647 30.4457 16.2812 26.3112V26.3032C16.1936 22.0692 16.9577 18.3366 18.5733 15.4674C18.7324 15.1809 18.9036 14.9024 19.0826 14.6358C19.4408 14.0986 19.8307 13.5972 20.2565 13.1356C20.36 13.0202 20.4714 12.9087 20.5828 12.7973C20.8017 12.5745 21.0325 12.3636 21.2673 12.1646C21.7448 11.7667 22.2581 11.4045 22.7993 11.0902C23.448 10.7161 24.1244 10.4137 24.8328 10.1869C25.0198 10.1272 25.2068 10.0715 25.3978 10.0237C25.4933 9.99585 25.5888 9.968 25.6883 9.9481C27.4074 9.53823 29.2658 9.51833 31.1997 9.86055C33.8937 10.3301 36.7469 11.5 39.5922 13.2748C42.704 15.2128 45.8079 17.8789 48.7009 21.142C45.8676 20.6724 42.8751 20.4217 39.7792 20.4217C36.3729 20.4217 33.0899 20.7281 30.0059 21.2932H30.0139Z" fill="url(#paint2_linear_5382_19216)"/>
<path style="mix-blend-mode:multiply" d="M60.1294 63.2075C59.059 65.2688 57.5707 66.9163 55.6686 68.0146C53.8261 69.0811 51.733 69.5506 49.4966 69.483C49.3852 69.483 49.2777 69.475 49.1663 69.471C49.0151 69.4631 48.8718 69.4511 48.7206 69.4392C48.6967 69.4392 48.6689 69.4392 48.649 69.4312C48.462 69.4153 48.271 69.3954 48.072 69.3755C48.0561 69.3755 48.0402 69.3755 48.0242 69.3676C47.8491 69.3437 47.6701 69.3198 47.495 69.292C47.4472 69.284 47.4035 69.276 47.3517 69.2681C47.1806 69.2363 47.0055 69.2084 46.8344 69.1726C46.8105 69.1726 46.7827 69.1646 46.7588 69.1567C46.6036 69.1248 46.4524 69.093 46.2932 69.0532C46.1898 69.0293 46.0863 69.0055 45.9789 68.9776C45.8276 68.9418 45.6764 68.902 45.5252 68.8582C45.5173 68.8582 45.5053 68.8582 45.4974 68.8503C45.2904 68.7945 45.0795 68.7309 44.8726 68.6672C44.6259 68.5916 44.3871 68.508 44.1404 68.4205C43.9653 68.3608 43.7862 68.2931 43.6111 68.2255C42.871 67.9469 42.1229 67.6167 41.3708 67.2386C41.0007 67.0556 40.6227 66.8606 40.2486 66.6497C40.0337 66.5303 39.8149 66.4069 39.6 66.2836C39.6 66.2836 39.592 66.2836 39.584 66.2756C35.6962 63.9915 31.7925 60.5653 28.2827 56.2357C31.8522 57.0236 35.7281 57.4534 39.779 57.4534C43.4918 57.4534 47.0533 57.0913 50.3641 56.4267C52.111 54.25 53.7624 51.8465 55.2587 49.248C57.0772 46.1043 58.5377 42.9089 59.636 39.7732C61.168 44.1226 62.0076 48.3606 62.1628 52.2166V52.2246C62.322 56.4785 61.6455 60.2628 60.1214 63.2036L60.1294 63.2075Z" fill="url(#paint3_linear_5382_19216)"/>
<path style="mix-blend-mode:multiply" d="M39.787 57.4533C43.4997 57.4533 47.0612 57.0912 50.3721 56.4267C47.0254 60.601 43.3127 63.9516 39.596 66.2716C39.1224 66.57 38.6449 66.8486 38.1754 67.1072C36.7587 67.8951 35.3421 68.5239 33.9493 68.9855C33.0221 69.2959 32.1069 69.5346 31.2075 69.6858C29.6636 69.9604 28.1673 70.0042 26.7507 69.7973C26.679 69.7893 26.6034 69.7774 26.5318 69.7615C26.3249 69.7296 26.118 69.6938 25.915 69.646C25.6365 69.5864 25.3579 69.5147 25.0873 69.4312C25.0037 69.4073 24.9242 69.3794 24.8366 69.3556C24.1323 69.1248 23.4518 68.8263 22.8032 68.4522C21.8481 67.8991 21.0005 67.2147 20.2564 66.4108C17.2201 63.116 15.9229 57.8234 16.3526 51.6196C16.3526 51.6196 16.3526 51.6117 16.3526 51.6077C16.6113 47.9069 17.4828 43.8878 18.9671 39.7771C20.0534 42.7696 21.4581 45.8138 23.1931 48.8182C24.7491 51.5082 26.4642 53.9953 28.2827 56.2357C31.8522 57.0236 35.7281 57.4533 39.779 57.4533H39.787Z" fill="url(#paint4_linear_5382_19216)"/>
<path style="mix-blend-mode:multiply" d="M62.1906 25.6584V25.6664C62.2464 29.9441 61.4027 34.787 59.6439 39.7731C58.5416 36.6374 57.0812 33.442 55.2666 30.2943C53.3008 26.888 51.0724 23.812 48.7086 21.1379C45.8753 20.6683 42.8829 20.4176 39.7869 20.4176C36.3806 20.4176 33.0977 20.724 30.0137 21.2891C33.0579 17.9106 36.3289 15.1887 39.588 13.2707H39.5959C39.8188 13.1394 40.0376 13.012 40.2605 12.8966C40.6345 12.6857 41.0086 12.4868 41.3827 12.3037C41.4583 12.2599 41.5418 12.2241 41.6254 12.1843C41.8323 12.0849 42.0432 11.9854 42.2502 11.8938C42.2502 11.8938 42.2581 11.8859 42.2661 11.8859C42.4531 11.7983 42.6441 11.7148 42.8391 11.6312C43.3087 11.4322 43.7703 11.2571 44.2358 11.094C44.4507 11.0184 44.6616 10.9468 44.8765 10.8791H44.8845C45.0954 10.8154 45.3023 10.7518 45.5132 10.6961C45.5212 10.6961 45.5291 10.6881 45.5411 10.6881C45.6923 10.6443 45.8435 10.6045 45.9947 10.5687C46.1977 10.517 46.3966 10.4692 46.5996 10.4255C46.703 10.4016 46.8065 10.3777 46.906 10.3618C47.0612 10.33 47.2124 10.3061 47.3676 10.2782C47.4153 10.2703 47.4591 10.2623 47.5108 10.2544C47.6859 10.2225 47.865 10.2026 48.0401 10.1787C48.056 10.1787 48.0719 10.1787 48.0878 10.1708C48.2828 10.1469 48.4738 10.127 48.6649 10.1151C48.6887 10.1151 48.7126 10.1071 48.7365 10.1071C48.8877 10.0952 49.031 10.0832 49.1822 10.0753C49.2936 10.0753 49.401 10.0633 49.5125 10.0633C51.7488 9.99968 53.838 10.4653 55.6804 11.5317C56.349 11.9137 56.9618 12.3674 57.5229 12.8807C57.6144 12.9603 57.7059 13.0479 57.7935 13.1394C57.9248 13.2667 58.0521 13.3941 58.1715 13.5254C58.271 13.6288 58.3665 13.7363 58.462 13.8477C58.5694 13.9711 58.6729 14.0984 58.7724 14.2218C58.856 14.3292 58.9395 14.4366 59.0231 14.5481C59.1385 14.6993 59.2459 14.8545 59.3534 15.0136C59.433 15.133 59.5086 15.2564 59.5882 15.3797C59.6717 15.515 59.7553 15.6503 59.8349 15.7896C59.9145 15.9289 59.994 16.0682 60.0697 16.2114C60.38 16.7845 60.6506 17.3893 60.8854 18.022C60.9411 18.1812 61.0008 18.3444 61.0565 18.5035C61.7848 20.6126 62.1628 23.032 62.2026 25.6624L62.1906 25.6584Z" fill="url(#paint5_linear_5382_19216)"/>
</g>
<defs>
<linearGradient id="paint0_linear_5382_19216" x1="18.8276" y1="21.2931" x2="18.8276" y2="56.2358" gradientUnits="userSpaceOnUse">
<stop stop-color="#67B5C2"/>
<stop offset="0.41" stop-color="#65B3C0"/>
<stop offset="0.55" stop-color="#61ACB9"/>
<stop offset="0.66" stop-color="#5BA1AD"/>
<stop offset="0.74" stop-color="#51919C"/>
<stop offset="0.81" stop-color="#447D86"/>
<stop offset="0.88" stop-color="#34636B"/>
<stop offset="0.93" stop-color="#21454A"/>
<stop offset="0.99" stop-color="#0C2226"/>
<stop offset="1" stop-color="#06181B"/>
</linearGradient>
<linearGradient id="paint1_linear_5382_19216" x1="47.2043" y1="22.0133" x2="64.029" y2="51.158" gradientUnits="userSpaceOnUse">
<stop stop-color="#67B5C2"/>
<stop offset="0.41" stop-color="#65B3C0"/>
<stop offset="0.55" stop-color="#61ACB9"/>
<stop offset="0.66" stop-color="#5BA1AD"/>
<stop offset="0.74" stop-color="#51919C"/>
<stop offset="0.81" stop-color="#447D86"/>
<stop offset="0.88" stop-color="#34636B"/>
<stop offset="0.93" stop-color="#21454A"/>
<stop offset="0.99" stop-color="#0C2226"/>
<stop offset="1" stop-color="#06181B"/>
</linearGradient>
<linearGradient id="paint2_linear_5382_19216" x1="41.5261" y1="33.5814" x2="16.4682" y2="19.1165" gradientUnits="userSpaceOnUse">
<stop stop-color="#67B5C2"/>
<stop offset="0.41" stop-color="#65B3C0"/>
<stop offset="0.55" stop-color="#61ACB9"/>
<stop offset="0.66" stop-color="#5BA1AD"/>
<stop offset="0.74" stop-color="#51919C"/>
<stop offset="0.81" stop-color="#447D86"/>
<stop offset="0.88" stop-color="#34636B"/>
<stop offset="0.93" stop-color="#21454A"/>
<stop offset="0.99" stop-color="#0C2226"/>
<stop offset="1" stop-color="#06181B"/>
</linearGradient>
<linearGradient id="paint3_linear_5382_19216" x1="45.2427" y1="39.7772" x2="45.2427" y2="69.4909" gradientUnits="userSpaceOnUse">
<stop stop-color="#67B5C2"/>
<stop offset="0.41" stop-color="#65B3C0"/>
<stop offset="0.55" stop-color="#61ACB9"/>
<stop offset="0.66" stop-color="#5BA1AD"/>
<stop offset="0.74" stop-color="#51919C"/>
<stop offset="0.81" stop-color="#447D86"/>
<stop offset="0.88" stop-color="#34636B"/>
<stop offset="0.93" stop-color="#21454A"/>
<stop offset="0.99" stop-color="#0C2226"/>
<stop offset="1" stop-color="#06181B"/>
</linearGradient>
<linearGradient id="paint4_linear_5382_19216" x1="16.277" y1="54.8509" x2="50.3721" y2="54.8509" gradientUnits="userSpaceOnUse">
<stop stop-color="#67B5C2"/>
<stop offset="0.41" stop-color="#65B3C0"/>
<stop offset="0.55" stop-color="#61ACB9"/>
<stop offset="0.66" stop-color="#5BA1AD"/>
<stop offset="0.74" stop-color="#51919C"/>
<stop offset="0.81" stop-color="#447D86"/>
<stop offset="0.88" stop-color="#34636B"/>
<stop offset="0.93" stop-color="#21454A"/>
<stop offset="0.99" stop-color="#0C2226"/>
<stop offset="1" stop-color="#06181B"/>
</linearGradient>
<linearGradient id="paint5_linear_5382_19216" x1="38.9473" y1="12.2639" x2="63.0542" y2="36.3708" gradientUnits="userSpaceOnUse">
<stop stop-color="#67B5C2"/>
<stop offset="0.41" stop-color="#65B3C0"/>
<stop offset="0.55" stop-color="#61ACB9"/>
<stop offset="0.66" stop-color="#5BA1AD"/>
<stop offset="0.74" stop-color="#51919C"/>
<stop offset="0.81" stop-color="#447D86"/>
<stop offset="0.88" stop-color="#34636B"/>
<stop offset="0.93" stop-color="#21454A"/>
<stop offset="0.99" stop-color="#0C2226"/>
<stop offset="1" stop-color="#06181B"/>
</linearGradient>
<clipPath id="clip0_5382_19216">
<rect width="64.2943" height="60.3069" fill="white" transform="translate(7.6377 9.62158)"/>
</clipPath>
</defs>
</svg>
