<svg width="140" height="140" viewBox="0 0 140 140" fill="none" xmlns="http://www.w3.org/2000/svg">
<g clip-path="url(#clip0_9612_51349)">
<path d="M70 140C108.66 140 140 108.66 140 70C140 31.3401 108.66 0 70 0C31.3401 0 0 31.3401 0 70C0 108.66 31.3401 140 70 140Z" fill="#21A58D"/>
<path d="M96.944 42.1949C96.6524 42.0721 96.3307 42.0393 96.0202 42.1008C95.7098 42.1623 95.4249 42.3152 95.202 42.54L42.5381 95.205C42.3152 95.4288 42.1635 95.7135 42.1022 96.0233C42.0409 96.3332 42.0727 96.6542 42.1935 96.946C42.3143 97.2379 42.5188 97.4874 42.7812 97.6632C43.0436 97.839 43.3522 97.9332 43.668 97.9339H96.331C96.7554 97.9339 97.1624 97.7654 97.4624 97.4653C97.7625 97.1652 97.931 96.7583 97.931 96.334V43.6719C97.9309 43.3558 97.837 43.0468 97.6614 42.7839C97.4857 42.521 97.2361 42.3161 96.944 42.1949ZM47.527 94.7369L94.7331 47.5309V56.6689H90.472C90.0477 56.6689 89.6407 56.8375 89.3407 57.1376C89.0406 57.4376 88.872 57.8446 88.872 58.269C88.872 58.6933 89.0406 59.1002 89.3407 59.4003C89.6407 59.7004 90.0477 59.8689 90.472 59.8689H94.7331V64.303H92.698C92.2737 64.303 91.8667 64.4715 91.5667 64.7716C91.2666 65.0716 91.098 65.4786 91.098 65.903C91.098 66.3273 91.2666 66.7342 91.5667 67.0343C91.8667 67.3344 92.2737 67.5029 92.698 67.5029H94.7331V71.937H90.472C90.0477 71.937 89.6407 72.1055 89.3407 72.4056C89.0406 72.7056 88.872 73.1126 88.872 73.537C88.872 73.9613 89.0406 74.3683 89.3407 74.6683C89.6407 74.9684 90.0477 75.1369 90.472 75.1369H94.7331V79.5729H92.698C92.2737 79.5729 91.8667 79.7415 91.5667 80.0416C91.2666 80.3416 91.098 80.7486 91.098 81.1729C91.098 81.5973 91.2666 82.0043 91.5667 82.3043C91.8667 82.6044 92.2737 82.773 92.698 82.773H94.7331V87.2069H90.472C90.0477 87.2069 89.6407 87.3755 89.3407 87.6756C89.0406 87.9756 88.872 88.3826 88.872 88.8069C88.872 89.2313 89.0406 89.6383 89.3407 89.9383C89.6407 90.2384 90.0477 90.407 90.472 90.407H94.7331V94.7529L47.527 94.7369ZM85.032 69.562C84.7402 69.4393 84.4184 69.4069 84.1079 69.4687C83.7975 69.5305 83.5126 69.6839 83.29 69.9089L69.905 83.2939C69.6822 83.5178 69.5305 83.8025 69.4692 84.1123C69.4079 84.4222 69.4397 84.7432 69.5605 85.0351C69.6813 85.3269 69.8858 85.5764 70.1482 85.7522C70.4106 85.928 70.7192 86.0222 71.035 86.023H84.42C84.8444 86.023 85.2514 85.8544 85.5514 85.5543C85.8515 85.2543 86.0201 84.8473 86.0201 84.4229V71.0379C86.0198 70.7217 85.9258 70.4126 85.7499 70.1497C85.5741 69.8868 85.3243 69.6819 85.032 69.5609V69.562ZM82.821 82.8259H74.893L82.821 74.898V82.8259ZM43.668 79.5079C43.8322 79.5074 43.9954 79.4821 44.152 79.433L51.689 77.0419C51.9329 76.9643 52.1547 76.8296 52.336 76.649L74.6771 54.3059C74.7435 54.2697 74.8067 54.2279 74.866 54.1809C74.9125 54.1219 74.9543 54.0594 74.991 53.9939L79.0401 49.945C79.3393 49.645 79.5073 49.2386 79.5073 48.8149C79.5073 48.3913 79.3393 47.9849 79.0401 47.6849L73.893 42.54C73.5931 42.2407 73.1867 42.0727 72.7631 42.0727C72.3394 42.0727 71.933 42.2407 71.633 42.54L44.933 69.2399C44.7522 69.4211 44.6174 69.6429 44.54 69.8869L42.147 77.424C42.0712 77.6635 42.0528 77.9176 42.0934 78.1655C42.1341 78.4135 42.2325 78.6484 42.3808 78.8513C42.5291 79.0541 42.7231 79.2192 42.9471 79.3331C43.1711 79.447 43.4188 79.5066 43.67 79.5069L43.668 79.5079ZM72.7631 45.9299L75.6501 48.8149L73.7051 50.76L70.82 47.8749L72.7631 45.9299ZM47.463 71.23L68.556 50.139L71.4411 53.024L50.351 74.11L46.125 75.4509L47.463 71.23Z" fill="white"/>
</g>
<defs>
<clipPath id="clip0_9612_51349">
<rect width="140" height="140" fill="white"/>
</clipPath>
</defs>
</svg>
