<svg width="140" height="140" viewBox="0 0 140 140" fill="none" xmlns="http://www.w3.org/2000/svg">
<g clip-path="url(#clip0_8626_31189)">
<path d="M70 140C108.66 140 140 108.66 140 70C140 31.3401 108.66 0 70 0C31.3401 0 0 31.3401 0 70C0 108.66 31.3401 140 70 140Z" fill="#21A58D"/>
<path d="M92.85 81.1699C92.8442 83.7836 91.9147 86.311 90.2257 88.3056C88.5367 90.3002 86.1969 91.6335 83.62 92.0699V49.4799C86.1978 49.9144 88.5387 51.2472 90.228 53.2422C91.9174 55.2372 92.8462 57.7657 92.85 60.3799V81.1699ZM47.15 99.8899V40.1099H79.94V92.1099C77.3648 91.6714 75.0274 90.3372 73.3404 88.3428C71.6534 86.3484 70.7253 83.8221 70.72 81.2099V77.4399C71.0033 77.1883 71.2313 76.8806 71.3897 76.5364C71.548 76.1921 71.6332 75.8188 71.64 75.4399V69.9999C71.64 69.6375 71.5686 69.2786 71.4299 68.9437C71.2912 68.6089 71.0879 68.3046 70.8316 68.0483C70.5753 67.792 70.271 67.5887 69.9362 67.45C69.6013 67.3113 69.2424 67.2399 68.88 67.2399C68.5175 67.2399 68.1586 67.3113 67.8238 67.45C67.4889 67.5887 67.1846 67.792 66.9284 68.0483C66.6721 68.3046 66.4688 68.6089 66.3301 68.9437C66.1914 69.2786 66.12 69.6375 66.12 69.9999V75.3999C66.1267 75.7788 66.2119 76.1521 66.3703 76.4964C66.5286 76.8406 66.7567 77.1483 67.04 77.3999V81.1299C67.028 85.0208 68.56 88.7574 71.3 91.5199C68.2311 90.5616 65.522 88.701 63.526 86.1805C61.53 83.6601 60.3396 80.5968 60.11 77.3899C60.3833 77.1338 60.6008 76.8239 60.7488 76.4797C60.8968 76.1356 60.9721 75.7645 60.97 75.3899V69.9999C60.97 69.6375 60.8986 69.2786 60.7599 68.9437C60.6212 68.6089 60.4179 68.3046 60.1616 68.0483C59.9053 67.792 59.601 67.5887 59.2662 67.45C58.9313 67.3113 58.5724 67.2399 58.21 67.2399C57.8475 67.2399 57.4886 67.3113 57.1538 67.45C56.8189 67.5887 56.5146 67.792 56.2584 68.0483C56.0021 68.3046 55.7988 68.6089 55.6601 68.9437C55.5214 69.2786 55.45 69.6375 55.45 69.9999V75.3999C55.4525 75.8004 55.5434 76.1954 55.7163 76.5567C55.8892 76.918 56.1397 77.2367 56.45 77.4899C56.7622 82.4681 58.9559 87.1413 62.5863 90.5619C66.2167 93.9824 71.012 95.8943 76 95.9099H79.92V99.9099L47.15 99.8899ZM83.62 45.7599V38.2699C83.62 38.0283 83.5724 37.789 83.4799 37.5658C83.3874 37.3426 83.2519 37.1397 83.081 36.9689C82.9102 36.798 82.7073 36.6625 82.4841 36.57C82.2609 36.4775 82.0216 36.4299 81.78 36.4299H45.31C45.0683 36.4299 44.8291 36.4775 44.6058 36.57C44.3826 36.6625 44.1798 36.798 44.0089 36.9689C43.838 37.1397 43.7025 37.3426 43.61 37.5658C43.5176 37.789 43.47 38.0283 43.47 38.2699V101.73C43.47 102.218 43.6638 102.686 44.0089 103.031C44.354 103.376 44.822 103.57 45.31 103.57H81.78C82.0216 103.57 82.2609 103.522 82.4841 103.43C82.7073 103.337 82.9102 103.202 83.081 103.031C83.2519 102.86 83.3874 102.657 83.4799 102.434C83.5724 102.211 83.62 101.972 83.62 101.73V95.7299C87.1724 95.2833 90.4412 93.5598 92.8166 90.8808C95.192 88.2019 96.5118 84.7503 96.53 81.1699V60.3799C96.5242 56.7898 95.2102 53.3248 92.8338 50.6337C90.4575 47.9426 87.1818 46.2099 83.62 45.7599ZM70.74 60.7599H56.35V49.3099H70.74V60.7599ZM74.42 62.5999V47.4699C74.42 46.9819 74.2261 46.5139 73.881 46.1689C73.536 45.8238 73.068 45.6299 72.58 45.6299H54.51C54.022 45.6299 53.554 45.8238 53.2089 46.1689C52.8638 46.5139 52.67 46.9819 52.67 47.4699V62.5499C52.67 63.0379 52.8638 63.5059 53.2089 63.851C53.554 64.1961 54.022 64.3899 54.51 64.3899H72.58C73.068 64.3899 73.536 64.1961 73.881 63.851C74.2261 63.5059 74.42 63.0379 74.42 62.5499V62.5999Z" fill="white"/>
</g>
<defs>
<clipPath id="clip0_8626_31189">
<rect width="140" height="140" fill="white"/>
</clipPath>
</defs>
</svg>
