<svg width="139" height="139" viewBox="0 0 139 139" fill="none" xmlns="http://www.w3.org/2000/svg">
<g clip-path="url(#clip0_9612_51344)">
<path d="M139 69.5C139 83.2458 134.924 96.6831 127.287 108.112C119.65 119.542 108.796 128.449 96.0965 133.709C83.397 138.97 69.4229 140.346 55.9412 137.665C42.4595 134.983 30.0758 128.364 20.3561 118.644C10.6363 108.924 4.01713 96.5403 1.33545 83.0586C-1.34622 69.5769 0.030118 55.6028 5.29041 42.9033C10.5507 30.2039 19.4587 19.3496 30.8879 11.7129C42.3171 4.07613 55.7542 0 69.5 0C87.9325 0 105.61 7.32218 118.644 20.356C131.678 33.3897 139 51.0675 139 69.5" fill="#21A58D"/>
<path d="M67.626 92.309C69.4914 92.5858 71.3875 92.5858 73.2529 92.309L73.6719 87.8558C73.7111 87.4509 73.8701 87.067 74.1285 86.7528C74.387 86.4386 74.7331 86.2087 75.1229 86.0922C76.1875 85.775 77.2163 85.348 78.1929 84.8187C78.5516 84.6256 78.9596 84.5435 79.365 84.5829C79.7705 84.6222 80.1551 84.7815 80.47 85.0399L83.915 87.892C85.4326 86.7722 86.7735 85.4309 87.8929 83.913L85.0439 80.4682C84.7838 80.1547 84.6233 79.7705 84.5832 79.3651C84.5431 78.9597 84.6252 78.5511 84.819 78.1928C85.3479 77.215 85.7745 76.1854 86.092 75.12C86.2095 74.7311 86.4399 74.3856 86.7539 74.1278C87.068 73.87 87.4515 73.7112 87.8559 73.6718L92.3089 73.2518C92.5916 71.3872 92.5916 69.4905 92.3089 67.6259L87.8559 67.2069C87.4512 67.1675 87.0673 67.0086 86.7532 66.7504C86.4391 66.4922 86.2089 66.1462 86.092 65.7567C85.7722 64.6915 85.3457 63.6616 84.819 62.682C84.6252 62.3242 84.5431 61.9166 84.5832 61.5116C84.6233 61.1067 84.7838 60.723 85.0439 60.41L87.8929 56.9638C86.7721 55.4474 85.4314 54.1066 83.915 52.9857L80.47 55.8358C80.1564 56.0946 79.7728 56.2543 79.3682 56.2943C78.9636 56.3344 78.5562 56.2532 78.1979 56.0609C77.2186 55.5334 76.1883 55.1066 75.1229 54.787C74.7332 54.6703 74.3871 54.44 74.1287 54.1259C73.8703 53.8117 73.7112 53.4277 73.6719 53.0228L73.2529 48.5712C71.3879 48.2889 69.491 48.2889 67.626 48.5712L67.2059 53.0228C67.1668 53.4274 67.0083 53.8112 66.7504 54.1254C66.4926 54.4395 66.1471 54.6698 65.7579 54.787C64.6922 55.1041 63.6624 55.531 62.6849 56.0609C62.3268 56.2551 61.9188 56.3374 61.5134 56.2973C61.108 56.2571 60.724 56.0964 60.4109 55.8358L56.9659 52.9857C56.2083 53.5456 55.493 54.1609 54.8259 54.8261C54.1604 55.4915 53.546 56.2059 52.988 56.9638L55.8359 60.411C56.0956 60.724 56.2557 61.1074 56.2956 61.5121C56.3355 61.9168 56.2534 62.3243 56.0599 62.682C55.5319 63.66 55.1059 64.6895 54.7889 65.7548C54.6725 66.1447 54.4425 66.4913 54.1283 66.7499C53.8141 67.0085 53.43 67.1677 53.0249 67.2069L48.571 67.6259C48.2903 69.4907 48.2903 71.387 48.571 73.2518L53.0209 73.6718C53.4255 73.7111 53.8093 73.87 54.1235 74.1278C54.4378 74.3856 54.6683 74.7309 54.7859 75.12C55.1025 76.1857 55.5291 77.2154 56.0589 78.1928C56.2524 78.5508 56.3345 78.9587 56.2947 79.3637C56.255 79.7686 56.0952 80.1521 55.8359 80.4657L52.9869 83.913C53.5452 84.6713 54.1596 85.3867 54.8249 86.0531C55.4918 86.7182 56.2071 87.3327 56.9649 87.892L60.41 85.0399C60.7243 84.7805 61.109 84.6208 61.5147 84.5814C61.9204 84.5421 62.3286 84.6246 62.6869 84.8187C63.664 85.3471 64.6927 85.7741 65.7569 86.0922C66.1462 86.2092 66.4917 86.4392 66.7496 86.7533C67.0074 87.0675 67.166 87.4513 67.2049 87.8558L67.626 92.309ZM70.4399 96.6029C68.7019 96.6029 66.9696 96.4061 65.2759 96.016C64.8582 95.9187 64.4817 95.6925 64.1996 95.3695C63.9175 95.0465 63.7442 94.6427 63.704 94.2157L63.2629 89.557C62.8329 89.398 62.4099 89.2211 61.9919 89.0311L58.3919 92.0121C58.0612 92.2856 57.6528 92.4479 57.2246 92.4765C56.7964 92.505 56.3701 92.398 56.006 92.1708C53.0481 90.3256 50.5511 87.8288 48.7059 84.871C48.479 84.5076 48.3722 84.0821 48.4004 83.6547C48.4285 83.2272 48.5904 82.8196 48.863 82.4891L51.8439 78.8817C51.6559 78.4637 51.478 78.0402 51.319 77.6132L46.6609 77.1718C46.2338 77.1315 45.8302 76.958 45.5072 76.6757C45.1842 76.3934 44.9581 76.0169 44.8609 75.599C44.077 72.202 44.077 68.6708 44.8609 65.2738C44.958 64.856 45.184 64.4793 45.5071 64.1972C45.8302 63.915 46.2339 63.7419 46.6609 63.702L51.319 63.2601C51.478 62.8331 51.6559 62.4091 51.8439 61.9891L48.8659 58.389C48.5923 58.0588 48.4296 57.6505 48.4009 57.2225C48.3721 56.7946 48.4789 56.3686 48.7059 56.0048C50.5523 53.0479 53.0491 50.5514 56.006 48.705C56.3703 48.4786 56.7965 48.3722 57.2245 48.4008C57.6525 48.4293 58.0608 48.5915 58.3919 48.8641L61.9919 51.8451C62.4099 51.6571 62.8329 51.4807 63.2609 51.3197L63.7019 46.66C63.7423 46.2324 63.9164 45.8284 64.1995 45.5053C64.4826 45.1821 64.8602 44.956 65.2789 44.8598C68.6737 44.08 72.2011 44.08 75.5959 44.8598C76.0146 44.956 76.3923 45.1821 76.6754 45.5053C76.9585 45.8284 77.1326 46.2324 77.173 46.66L77.6139 51.3197C78.0419 51.4807 78.4679 51.6571 78.8849 51.8451L82.4849 48.8641C82.8149 48.5896 83.2233 48.4264 83.6517 48.3978C84.08 48.3693 84.5064 48.4766 84.8699 48.705C87.826 50.5524 90.3225 53.0487 92.17 56.0048C92.3968 56.3689 92.5033 56.7955 92.4744 57.2235C92.4455 57.6516 92.2827 58.0597 92.009 58.39L89.0279 61.9901C89.2169 62.4081 89.394 62.8341 89.553 63.2611L94.2129 63.703C94.6406 63.743 95.0447 63.9166 95.3679 64.1996C95.6911 64.4825 95.9168 64.8606 96.0129 65.2792C96.797 68.6738 96.797 72.2024 96.0129 75.5971C95.9165 76.0155 95.6907 76.3928 95.3676 76.6757C95.0445 76.9586 94.6405 77.1324 94.2129 77.1727L89.553 77.6141C89.394 78.0411 89.2169 78.4647 89.0279 78.8827L92.009 82.4828C92.2828 82.8129 92.4456 83.2209 92.4745 83.6488C92.5034 84.0767 92.3969 84.5031 92.17 84.8671C90.3237 87.8241 87.8269 90.3206 84.8699 92.1669C84.5063 92.3951 84.08 92.5026 83.6517 92.474C83.2233 92.4455 82.815 92.2821 82.4849 92.0077L78.8849 89.0292C78.4679 89.2172 78.0429 89.394 77.6139 89.556L77.173 94.2118C77.1326 94.6389 76.9589 95.0426 76.6767 95.3656C76.3944 95.6886 76.0177 95.9148 75.6 96.0121C73.907 96.4022 72.1752 96.599 70.4379 96.599" fill="white"/>
<path d="M70.439 62.7812C68.9248 62.7812 67.4445 63.23 66.1855 64.0713C64.9265 64.9125 63.9452 66.1084 63.3657 67.5073C62.7863 68.9063 62.6346 70.4455 62.9301 71.9307C63.2255 73.4158 63.9546 74.7799 65.0253 75.8506C66.096 76.9213 67.4603 77.6504 68.9454 77.9458C70.4305 78.2412 71.9698 78.0897 73.3688 77.5103C74.7677 76.9308 75.9634 75.9495 76.8047 74.6904C77.6459 73.4314 78.095 71.9512 78.095 70.437C78.0931 68.4071 77.2859 66.4608 75.8505 65.0254C74.4151 63.59 72.4689 62.7831 70.439 62.7812M70.439 82.1812C68.1171 82.181 65.8473 81.4923 63.9168 80.2021C61.9863 78.912 60.4817 77.0783 59.5933 74.9331C58.7049 72.7879 58.4726 70.4272 58.9257 68.1499C59.3788 65.8726 60.4969 63.7809 62.1389 62.1392C63.7808 60.4974 65.8727 59.3797 68.15 58.9268C70.4273 58.4738 72.7877 58.7061 74.9329 59.5947C77.078 60.4833 78.9115 61.9883 80.2015 63.9189C81.4914 65.8496 82.1799 68.119 82.1799 70.4409C82.1762 73.5536 80.938 76.5379 78.7369 78.7388C76.5358 80.9397 73.5516 82.1777 70.439 82.1812" fill="white"/>
</g>
<defs>
<clipPath id="clip0_9612_51344">
<rect width="139" height="139" fill="white"/>
</clipPath>
</defs>
</svg>
