<svg width="139" height="139" viewBox="0 0 139 139" fill="none" xmlns="http://www.w3.org/2000/svg">
<g clip-path="url(#clip0_9612_51323)">
<path d="M139 69.5C139 83.2458 134.924 96.6831 127.287 108.112C119.65 119.542 108.796 128.449 96.0966 133.709C83.3971 138.97 69.423 140.346 55.9413 137.665C42.4596 134.983 30.0758 128.364 20.3561 118.644C10.6363 108.924 4.01713 96.5403 1.33545 83.0586C-1.34622 69.5769 0.030118 55.6028 5.29041 42.9033C10.5507 30.2039 19.4587 19.3496 30.8879 11.7129C42.3172 4.07613 55.7542 0 69.5 0C87.9325 0 105.61 7.32218 118.644 20.356C131.678 33.3897 139 51.0675 139 69.5" fill="#21A58D"/>
<path fill-rule="evenodd" clip-rule="evenodd" d="M68.7321 89.5962C69.333 89.5954 69.9267 89.7263 70.4714 89.98C71.0162 90.2336 71.4988 90.6036 71.885 91.064C75.6575 90.5484 79.1166 88.6875 81.6252 85.8232C84.1339 82.959 85.5231 79.2845 85.537 75.4771V60.7681C85.5235 56.6014 83.8624 52.6094 80.9161 49.6631C77.9699 46.7168 73.9777 45.0554 69.811 45.042H67.6541C63.4875 45.0557 59.4954 46.7169 56.5492 49.6631C53.603 52.6093 51.9417 56.6015 51.928 60.7681V75.481C51.9277 75.9912 51.7249 76.4805 51.3641 76.8413C51.0034 77.2021 50.5142 77.405 50.004 77.4053C48.804 77.4053 47.524 77.5049 46.276 77.5049C45.6154 77.503 44.9824 77.2401 44.5153 76.7729C44.0481 76.3058 43.7848 75.6728 43.783 75.0122V64.2119C43.7853 63.5516 44.0489 62.9193 44.516 62.4526C44.9831 61.9859 45.6157 61.723 46.276 61.7212H48.0811V60.7749C48.0958 55.5885 50.1627 50.619 53.8302 46.9517C57.4977 43.2844 62.4676 41.2176 67.6541 41.2031H69.811C74.9975 41.2176 79.9674 43.2844 83.6349 46.9517C87.3024 50.619 89.3693 55.5885 89.384 60.7749V61.7212H91.41C92.0703 61.723 92.703 61.9859 93.17 62.4526C93.6371 62.9193 93.9007 63.5516 93.9031 64.2119V75.0122C93.9012 75.6728 93.6379 76.3058 93.1708 76.7729C92.7036 77.2401 92.0707 77.503 91.41 77.5049H89.28C88.8163 81.8194 86.9381 85.8595 83.9384 88.9951C80.9386 92.1307 76.9858 94.1856 72.696 94.8398C72.4875 95.577 72.0774 96.2414 71.512 96.7583C70.9465 97.2752 70.248 97.6244 69.4951 97.7661C68.7422 97.9078 67.9648 97.8365 67.2501 97.5605C66.5354 97.2846 65.9118 96.8146 65.4496 96.2036C64.9873 95.5927 64.7047 94.8648 64.6334 94.1021C64.5621 93.3393 64.705 92.5718 65.046 91.8857C65.3871 91.1997 65.9127 90.6224 66.5638 90.2188C67.215 89.8151 67.9659 89.6014 68.7321 89.6011" fill="white"/>
<path d="M75.287 61.4302C75.8346 61.4302 76.3701 61.5922 76.8254 61.8965C77.2808 62.2007 77.6356 62.6332 77.8452 63.1392C78.0548 63.6451 78.1097 64.2021 78.0028 64.7393C77.896 65.2764 77.6322 65.77 77.245 66.1572C76.8577 66.5445 76.3644 66.8082 75.8273 66.915C75.2901 67.0219 74.7334 66.9669 74.2274 66.7573C73.7214 66.5477 73.2889 66.1927 72.9846 65.7373C72.6804 65.2819 72.5181 64.7469 72.5181 64.1992C72.5181 63.4648 72.8097 62.7605 73.329 62.2412C73.8483 61.7219 74.5526 61.4302 75.287 61.4302M62.179 61.4302C62.7266 61.4304 63.2619 61.5926 63.7172 61.897C64.1724 62.2014 64.5271 62.6342 64.7366 63.1401C64.946 63.6461 65.0006 64.2027 64.8937 64.7397C64.7867 65.2768 64.5229 65.7701 64.1356 66.1572C63.7483 66.5444 63.255 66.8083 62.7179 66.915C62.1808 67.0218 61.6241 66.9669 61.1182 66.7573C60.6123 66.5477 60.1798 66.1926 59.8756 65.7373C59.5714 65.282 59.4091 64.7468 59.4091 64.1992C59.4089 63.8355 59.4805 63.4752 59.6196 63.1392C59.7588 62.8031 59.9628 62.4974 60.2201 62.2402C60.4774 61.9831 60.7828 61.7792 61.1189 61.6401C61.455 61.5011 61.8152 61.4299 62.179 61.4302ZM76.835 76.0449C76.9459 75.8176 77.0109 75.5708 77.0259 75.3184C77.0409 75.0659 77.0057 74.8131 76.9225 74.5742C76.8393 74.3354 76.7096 74.1152 76.5409 73.9268C76.3722 73.7383 76.1679 73.5852 75.9397 73.4761C75.7115 73.367 75.464 73.304 75.2114 73.291C74.9588 73.278 74.7062 73.3152 74.468 73.4004C74.2299 73.4856 74.0109 73.6169 73.8239 73.7871C73.6368 73.9573 73.4853 74.163 73.3781 74.3921C72.9577 75.2673 72.2986 76.006 71.4768 76.523C70.655 77.0399 69.7039 77.314 68.733 77.314C67.7622 77.314 66.8111 77.0399 65.9893 76.523C65.1675 76.006 64.5084 75.2673 64.088 74.3921C63.9808 74.163 63.8292 73.9573 63.6421 73.7871C63.455 73.6169 63.2361 73.4856 62.9979 73.4004C62.7598 73.3152 62.5071 73.278 62.2545 73.291C62.0019 73.304 61.7544 73.367 61.5262 73.4761C61.2981 73.5852 61.0938 73.7383 60.9252 73.9268C60.7565 74.1152 60.6268 74.3354 60.5436 74.5742C60.4604 74.8131 60.4252 75.0659 60.4402 75.3184C60.4552 75.5708 60.52 75.8176 60.631 76.0449C61.3623 77.5729 62.5109 78.8631 63.9442 79.7661C65.3775 80.6691 67.037 81.1479 68.731 81.1479C70.425 81.1479 72.0844 80.6691 73.5177 79.7661C74.951 78.8631 76.0997 77.5729 76.8311 76.0449" fill="white"/>
</g>
<defs>
<clipPath id="clip0_9612_51323">
<rect width="139" height="139" fill="white"/>
</clipPath>
</defs>
</svg>
