<svg width="140" height="140" viewBox="0 0 140 140" fill="none" xmlns="http://www.w3.org/2000/svg">
<g clip-path="url(#clip0_9612_51328)">
<path d="M70 140C108.66 140 140 108.66 140 70C140 31.3401 108.66 0 70 0C31.3401 0 0 31.3401 0 70C0 108.66 31.3401 140 70 140Z" fill="#21A58D"/>
<path d="M77.1969 45.4619C77.1469 45.5109 77.0969 45.5619 77.0439 45.6049L72.4869 49.5919C72.2962 49.7589 72.0514 49.851 71.7979 49.8509H67.5229C67.2691 49.8509 67.0239 49.7589 66.8329 49.5919L62.2768 45.6049C61.7592 45.1325 61.401 44.5112 61.2516 43.8266C61.1022 43.142 61.1691 42.4279 61.4429 41.7829C61.6421 41.2787 61.9573 40.8285 62.3629 40.4689C62.9902 39.919 63.7977 39.619 64.6319 39.6259H74.6878C75.5223 39.6188 76.3303 39.9188 76.9579 40.4689C77.3625 40.829 77.6775 41.2786 77.8779 41.7819C78.0515 42.2102 78.1425 42.6677 78.1459 43.1299C78.1501 44.0021 77.809 44.8405 77.1969 45.4619V45.4619ZM71.4039 47.7619L75.6648 44.0329C75.7899 43.9193 75.8891 43.7802 75.9557 43.6249C76.0223 43.4696 76.0548 43.3018 76.0509 43.1329C76.0479 42.9386 76.0085 42.7467 75.9349 42.5669C75.858 42.3684 75.7361 42.1904 75.5788 42.0469C75.3332 41.8306 75.015 41.7149 74.6878 41.7229H64.6329C64.3059 41.7145 63.9879 41.8303 63.7428 42.0469C63.586 42.1897 63.4645 42.3671 63.3879 42.5649C63.2798 42.8081 63.2478 43.0782 63.2958 43.34C63.3438 43.6017 63.4696 43.8428 63.6568 44.0319L67.9179 47.7599L71.4039 47.7619Z" fill="white"/>
<path d="M71.7981 50.4769H67.523C67.1182 50.4765 66.7273 50.3291 66.4231 50.062L61.867 46.075C61.2523 45.5167 60.826 44.7814 60.6469 43.9705C60.4678 43.1597 60.5447 42.3133 60.867 41.548C61.1029 40.953 61.4757 40.422 61.955 39.9979C62.6953 39.3462 63.6498 38.9901 64.636 38.9979H74.692C75.6786 38.9899 76.6336 39.3459 77.374 39.9979C77.8522 40.4224 78.2244 40.9529 78.461 41.5469C78.6648 42.0496 78.7711 42.5866 78.774 43.129C78.7772 44.1665 78.3707 45.1634 77.643 45.903L77.638 45.908C77.58 45.966 77.52 46.0219 77.458 46.0759L72.902 50.0629C72.5965 50.3304 72.2041 50.4776 71.7981 50.4769V50.4769ZM64.633 40.25C63.9504 40.243 63.2893 40.4879 62.776 40.9379C62.4451 41.2333 62.1876 41.6017 62.024 42.0139C61.7985 42.539 61.7415 43.1211 61.8608 43.6799C61.9801 44.2387 62.2698 44.7468 62.69 45.134L67.2461 49.121C67.3227 49.1891 67.4215 49.2267 67.524 49.2269H71.799C71.9004 49.2282 71.9988 49.1927 72.076 49.127L76.633 45.1389C76.676 45.1009 76.717 45.063 76.758 45.023C77.2507 44.5184 77.5248 43.8401 77.521 43.135C77.5184 42.7529 77.443 42.3748 77.299 42.0209C77.1366 41.6081 76.8793 41.2392 76.5481 40.944C76.0342 40.4935 75.3724 40.2482 74.689 40.255L64.633 40.25ZM71.6391 48.382H67.683L63.2461 44.499C62.9592 44.2259 62.7632 43.8713 62.6847 43.4831C62.6061 43.0949 62.6488 42.692 62.807 42.3289C62.9209 42.0404 63.1002 41.7823 63.331 41.575C63.6892 41.2582 64.1529 41.087 64.631 41.095H74.687C75.1647 41.0872 75.6282 41.2576 75.987 41.5729C76.2183 41.7816 76.3981 42.041 76.512 42.3309C76.6157 42.5851 76.6704 42.8565 76.6731 43.1309C76.6772 43.3884 76.6257 43.6437 76.5221 43.8795C76.4186 44.1152 76.2654 44.3258 76.073 44.497L71.6391 48.382ZM68.152 47.132H71.171L75.255 43.5579C75.3124 43.5029 75.3574 43.4362 75.387 43.3624C75.4167 43.2886 75.4303 43.2094 75.427 43.13C75.4237 43.0156 75.3997 42.9027 75.356 42.7969C75.3152 42.6893 75.2505 42.5922 75.167 42.513C75.0356 42.3968 74.8642 42.3366 74.689 42.345H64.633C64.4581 42.3371 64.287 42.3977 64.156 42.5139C64.0725 42.5924 64.0078 42.6889 63.967 42.796C63.91 42.9196 63.8892 43.0569 63.9069 43.1919C63.9246 43.3269 63.9801 43.4542 64.067 43.559L68.152 47.132Z" fill="white"/>
<path d="M81.095 96.364C80.942 96.5166 80.7663 96.6444 80.574 96.743L71.055 104.715C70.6581 105.032 70.1648 105.204 69.6567 105.202C69.1487 105.2 68.6566 105.025 68.262 104.705L58.754 96.743C58.4158 96.5692 58.1316 96.3062 57.9324 95.9823C57.7332 95.6584 57.6266 95.2862 57.624 94.906V80.56C57.6246 80.0139 57.8416 79.4903 58.2275 79.1039C58.6135 78.7176 59.1369 78.5001 59.683 78.499H64.833V74.964C64.8333 74.6861 64.9438 74.4197 65.1403 74.2233C65.3367 74.0268 65.6031 73.9163 65.881 73.916H73.447C73.7248 73.916 73.9912 74.0263 74.1877 74.2226C74.3842 74.4189 74.4947 74.6852 74.495 74.963V78.499H79.645C80.191 78.5001 80.7144 78.7174 81.1005 79.1035C81.4866 79.4896 81.704 80.013 81.705 80.559V94.905C81.7027 95.4529 81.4833 95.9775 81.095 96.364V96.364ZM59.719 94.882C59.8175 94.9229 59.9092 94.9786 59.991 95.047L69.607 103.1C69.6439 103.113 69.6841 103.113 69.721 103.1L79.337 95.045C79.4188 94.9765 79.5105 94.9209 79.609 94.88V80.594H73.447C73.1693 80.594 72.903 80.4837 72.7067 80.2874C72.5103 80.091 72.4 79.8247 72.4 79.547V76.011H66.928V79.546C66.928 79.8238 66.8177 80.0902 66.6214 80.2867C66.4251 80.4832 66.1588 80.5937 65.881 80.594H59.719V94.882Z" fill="white"/>
<path d="M69.6689 105.823C69.0098 105.828 68.3698 105.602 67.8599 105.184L58.403 97.265C57.9812 97.0314 57.6293 96.6898 57.3832 96.2753C57.1372 95.8607 57.0059 95.3881 57.0029 94.906V80.56C57.0037 79.8484 57.2866 79.1661 57.7895 78.6627C58.2924 78.1592 58.9744 77.8756 59.686 77.874H64.212V74.964C64.2122 74.5205 64.3884 74.0953 64.7019 73.7817C65.0154 73.468 65.4405 73.2915 65.884 73.291H73.45C73.8931 73.2905 74.3182 73.466 74.632 73.779C74.9448 74.0938 75.1212 74.5192 75.1229 74.963V77.874H79.6519C80.3632 77.8753 81.0448 78.1588 81.5473 78.6622C82.0498 79.1656 82.332 79.8478 82.332 80.559V94.905C82.3308 95.3876 82.2003 95.8611 81.9541 96.2761C81.7079 96.6912 81.3549 97.0327 80.9319 97.265L71.465 105.194C70.9586 105.608 70.3229 105.83 69.6689 105.823V105.823ZM59.6849 79.123C59.3044 79.1238 58.9397 79.2754 58.6708 79.5446C58.4018 79.8137 58.2505 80.1785 58.2499 80.559V94.905C58.2519 95.1701 58.3264 95.4296 58.4653 95.6554C58.6042 95.8812 58.8023 96.0647 59.038 96.186L59.155 96.263L68.663 104.225C68.945 104.451 69.2953 104.575 69.6569 104.577C70.0184 104.579 70.3699 104.458 70.6539 104.234L80.2889 96.186C80.4231 96.1173 80.5456 96.0279 80.6519 95.921C80.9225 95.6514 81.0759 95.286 81.0789 94.904V80.56C81.0779 80.1804 80.9269 79.8166 80.6589 79.5479C80.3909 79.2791 80.0275 79.1271 79.6479 79.125H73.8699V74.964C73.8697 74.852 73.825 74.7446 73.7457 74.6655C73.6664 74.5864 73.559 74.542 73.447 74.542H65.8809C65.7689 74.5423 65.6616 74.587 65.5825 74.6663C65.5033 74.7456 65.4589 74.853 65.4589 74.965V79.125L59.6849 79.123ZM69.6669 103.735C69.5301 103.736 69.3955 103.7 69.278 103.63L59.59 95.53C59.5561 95.5024 59.5183 95.4798 59.478 95.463L59.093 95.303V79.973H65.8799C65.9919 79.9725 66.099 79.9277 66.1781 79.8485C66.2572 79.7692 66.3017 79.6619 66.3019 79.55V75.39H73.0239V79.551C73.0242 79.6629 73.0687 79.77 73.1478 79.8491C73.2269 79.9282 73.3341 79.9728 73.4459 79.973H80.233V95.303L79.848 95.463C79.8087 95.4792 79.7723 95.5015 79.7399 95.529L70.015 103.656C69.9072 103.711 69.7877 103.738 69.6669 103.736V103.735ZM60.343 94.527C60.361 94.541 60.3779 94.554 60.3939 94.568L69.6649 102.332L78.936 94.567L78.9839 94.528V81.218H73.447C73.0037 81.2175 72.5787 81.0412 72.2653 80.7277C71.9518 80.4143 71.7755 79.9893 71.775 79.546V76.635H67.5529V79.545C67.5521 79.9881 67.3759 80.4129 67.0627 80.7264C66.7496 81.04 66.3251 81.2167 65.882 81.218H60.3439L60.343 94.527Z" fill="white"/>
<path d="M67.8279 74.5549C67.6815 74.7016 67.4948 74.8016 67.2916 74.8421C67.0883 74.8826 66.8776 74.8618 66.6861 74.7825C66.4946 74.7031 66.331 74.5687 66.216 74.3963C66.101 74.2239 66.0397 74.0212 66.0399 73.814V48.598C66.0399 48.3195 66.1506 48.0524 66.3475 47.8555C66.5444 47.6586 66.8115 47.548 67.09 47.548C67.3684 47.548 67.6355 47.6586 67.8324 47.8555C68.0293 48.0524 68.14 48.3195 68.14 48.598V73.814C68.1381 74.0925 68.0259 74.3589 67.8279 74.5549V74.5549Z" fill="white"/>
<path d="M67.088 75.486C66.6447 75.4858 66.2196 75.3097 65.9059 74.9964C65.5923 74.6831 65.4157 74.2583 65.4149 73.815V48.598C65.4149 48.1546 65.5911 47.7293 65.9047 47.4157C66.2182 47.1021 66.6435 46.926 67.087 46.926C67.5304 46.926 67.9557 47.1021 68.2692 47.4157C68.5828 47.7293 68.759 48.1546 68.759 48.598V73.815C68.7591 74.0345 68.7159 74.2519 68.632 74.4547C68.5481 74.6574 68.425 74.8417 68.2698 74.9969C68.1146 75.1521 67.9303 75.2751 67.7275 75.3591C67.5247 75.443 67.3074 75.4862 67.088 75.486V75.486ZM67.088 48.175C66.976 48.1755 66.8688 48.2203 66.7898 48.2996C66.7107 48.3788 66.6662 48.4861 66.666 48.598V73.815C66.6715 73.8958 66.6994 73.9734 66.7466 74.0392C66.7939 74.105 66.8585 74.1564 66.9332 74.1876C67.008 74.2187 67.0899 74.2284 67.1699 74.2156C67.2498 74.2028 67.3246 74.1679 67.3859 74.115C67.4257 74.0759 67.4572 74.0292 67.4785 73.9777C67.4998 73.9261 67.5105 73.8708 67.5099 73.815V48.598C67.5099 48.4858 67.4654 48.3782 67.386 48.2989C67.3067 48.2196 67.1992 48.175 67.087 48.175H67.088Z" fill="white"/>
<path d="M72.981 74.555C72.8345 74.7013 72.6479 74.801 72.4448 74.8413C72.2417 74.8816 72.0312 74.8608 71.8399 74.7815C71.6486 74.7022 71.4852 74.5679 71.3702 74.3957C71.2552 74.2235 71.1939 74.0211 71.194 73.814V48.598C71.194 48.3203 71.3043 48.054 71.5006 47.8577C71.697 47.6613 71.9633 47.551 72.241 47.551C72.5186 47.551 72.7849 47.6613 72.9813 47.8577C73.1776 48.054 73.288 48.3203 73.288 48.598V73.814C73.2882 73.9517 73.2611 74.088 73.2084 74.2151C73.1557 74.3423 73.0785 74.4578 72.981 74.555V74.555Z" fill="white"/>
<path d="M72.241 75.486C71.7979 75.4854 71.373 75.3092 71.0596 74.996C70.7462 74.6827 70.5698 74.258 70.569 73.8149V48.598C70.569 48.1544 70.7452 47.7289 71.0588 47.4153C71.3725 47.1016 71.7979 46.9254 72.2415 46.9254C72.685 46.9254 73.1104 47.1016 73.4241 47.4153C73.7377 47.7289 73.9139 48.1544 73.9139 48.598V73.8149C73.9134 74.2583 73.7369 74.6833 73.4232 74.9966C73.1095 75.31 72.6843 75.486 72.241 75.486V75.486ZM72.241 48.1749C72.1291 48.1755 72.022 48.2203 71.9431 48.2996C71.8642 48.3788 71.8199 48.4861 71.8199 48.598V73.8149C71.8259 73.8956 71.854 73.9729 71.9013 74.0385C71.9486 74.1041 72.0131 74.1553 72.0877 74.1863C72.1623 74.2174 72.2441 74.2272 72.3239 74.2146C72.4038 74.202 72.4785 74.1675 72.5399 74.1149C72.5797 74.0758 72.6112 74.0291 72.6327 73.9775C72.6542 73.926 72.6651 73.8708 72.6649 73.8149V48.598C72.6644 48.4856 72.6194 48.378 72.5397 48.2987C72.4601 48.2194 72.3523 48.1749 72.2399 48.1749H72.241Z" fill="white"/>
<path d="M66.621 87.4659C66.4746 87.6122 66.2881 87.7118 66.0851 87.7521C65.8821 87.7925 65.6716 87.7718 65.4804 87.6926C65.2892 87.6134 65.1257 87.4792 65.0107 87.3072C64.8956 87.1351 64.8341 86.9329 64.834 86.7259V78.6259C64.834 78.3482 64.9443 78.0819 65.1407 77.8856C65.337 77.6892 65.6033 77.5789 65.881 77.5789C66.1587 77.5789 66.425 77.6892 66.6213 77.8856C66.8177 78.0819 66.928 78.3482 66.928 78.6259V86.7259C66.9283 86.8634 66.9013 86.9996 66.8486 87.1266C66.7959 87.2537 66.7186 87.369 66.621 87.4659V87.4659Z" fill="white"/>
<path d="M65.882 88.3989C65.4386 88.3978 65.0137 88.2212 64.7002 87.9077C64.3867 87.5942 64.21 87.1693 64.209 86.7259V78.6259C64.209 78.1824 64.3852 77.7572 64.6987 77.4436C65.0123 77.13 65.4375 76.9539 65.881 76.9539C66.3244 76.9539 66.7497 77.13 67.0633 77.4436C67.3769 77.7572 67.553 78.1824 67.553 78.6259V86.7259C67.553 87.1693 67.377 87.5945 67.0637 87.9081C66.7504 88.2218 66.3254 88.3983 65.882 88.3989V88.3989ZM65.882 78.2059C65.7702 78.2061 65.663 78.2507 65.5839 78.3298C65.5048 78.4089 65.4603 78.516 65.46 78.6279V86.7279C65.4656 86.8087 65.4935 86.8863 65.5407 86.9521C65.5879 87.0179 65.6525 87.0693 65.7273 87.1004C65.802 87.1315 65.884 87.1413 65.9639 87.1285C66.0439 87.1157 66.1187 87.0808 66.18 87.0279C66.2196 86.9886 66.2509 86.9419 66.2722 86.8904C66.2935 86.8389 66.3043 86.7836 66.304 86.7279V78.6279C66.304 78.5157 66.2594 78.4081 66.1801 78.3288C66.1008 78.2495 65.9932 78.2049 65.881 78.2049L65.882 78.2059Z" fill="white"/>
<path d="M74.1 87.4659C73.9528 87.6129 73.7652 87.7128 73.561 87.7527C73.3569 87.7927 73.1455 87.771 72.9538 87.6903C72.7621 87.6096 72.5987 87.4736 72.4846 87.2997C72.3704 87.1258 72.3107 86.9219 72.3129 86.7139L72.4 78.7709C72.403 78.4932 72.5162 78.2281 72.7147 78.0339C72.9132 77.8397 73.1808 77.7324 73.4584 77.7354C73.7361 77.7385 74.0012 77.8517 74.1954 78.0502C74.3896 78.2487 74.497 78.5162 74.494 78.7939L74.4069 86.7369C74.4045 87.0108 74.2942 87.2727 74.1 87.4659V87.4659Z" fill="white"/>
<path d="M73.363 88.3979H73.34C72.8969 88.3921 72.4742 88.211 72.1644 87.8942C71.8546 87.5775 71.683 87.1509 71.687 86.7079L71.775 78.7639C71.78 78.3238 71.9582 77.9035 72.2709 77.5939C72.5837 77.2843 73.0058 77.1104 73.4459 77.1099H73.4659C73.9091 77.1157 74.3318 77.2968 74.6418 77.6135C74.9518 77.9302 75.1237 78.3567 75.1199 78.7999L75.0319 86.7439C75.0275 87.1838 74.8498 87.6041 74.5373 87.9138C74.2248 88.2234 73.8029 88.3974 73.363 88.3979V88.3979ZM73.4459 78.3599C73.3914 78.3596 73.3373 78.3702 73.2869 78.3909C73.2364 78.4117 73.1905 78.4423 73.1519 78.4809C73.1118 78.5199 73.08 78.5665 73.0582 78.618C73.0364 78.6696 73.0251 78.7249 73.025 78.7809L72.937 86.7239C72.9359 86.8357 72.9792 86.9434 73.0573 87.0234C73.1355 87.1035 73.2421 87.1493 73.354 87.1509C73.4662 87.1497 73.5736 87.1053 73.6539 87.0269C73.7323 86.9494 73.7769 86.8441 73.778 86.7339L73.866 78.7899C73.8665 78.6778 73.8228 78.5701 73.7443 78.4902C73.6659 78.4102 73.559 78.3644 73.447 78.3629L73.4459 78.3599Z" fill="white"/>
</g>
<defs>
<clipPath id="clip0_9612_51328">
<rect width="140" height="140" fill="white"/>
</clipPath>
</defs>
</svg>
