<svg width="142" height="142" viewBox="0 0 142 142" fill="none" xmlns="http://www.w3.org/2000/svg">
<g clip-path="url(#clip0_9612_51371)">
<path d="M71 142C110.212 142 142 110.212 142 71C142 31.7878 110.212 0 71 0C31.7878 0 0 31.7878 0 71C0 110.212 31.7878 142 71 142Z" fill="#21A58D"/>
<path d="M88.0139 100.826C88.0139 100.79 88.0139 100.754 88.0139 100.717L80.8979 48.548H95.4239C95.4299 48.5475 95.4359 48.5475 95.4419 48.548C95.8654 48.5473 96.2748 48.3963 96.5973 48.122C96.9199 47.8477 97.1346 47.4677 97.2032 47.0499C97.2719 46.6321 97.19 46.2035 96.9722 45.8403C96.7545 45.4772 96.4149 45.2032 96.0139 45.067L78.2649 37.155C78.0363 37.0525 77.7885 36.9997 77.5379 37H65.0089C64.762 36.9999 64.5178 37.0513 64.2919 37.151L46.0769 45.124C45.7011 45.2886 45.3933 45.5774 45.2052 45.9421C45.0172 46.3068 44.9604 46.7251 45.0444 47.1268C45.1284 47.5284 45.3481 47.8889 45.6665 48.1477C45.9849 48.4065 46.3826 48.5479 46.7929 48.548H61.6519L54.5359 100.717C54.5309 100.755 54.5359 100.79 54.5359 100.828C54.5301 100.892 54.5277 100.957 54.5289 101.022C54.5289 101.078 54.5379 101.133 54.5449 101.188C54.5519 101.243 54.5619 101.306 54.5749 101.364C54.589 101.422 54.6061 101.478 54.6259 101.534C54.6439 101.587 54.6619 101.634 54.6849 101.691C54.7079 101.748 54.7449 101.806 54.7769 101.861C54.7969 101.894 54.8089 101.928 54.8299 101.961C54.8379 101.972 54.8489 101.98 54.8569 101.991C54.9341 102.101 55.0233 102.201 55.1229 102.291L55.1539 102.313C55.2466 102.392 55.3471 102.46 55.4539 102.518C55.4919 102.539 55.5319 102.554 55.5709 102.573C55.6518 102.61 55.7353 102.641 55.8209 102.666C55.8699 102.679 55.9209 102.691 55.9669 102.701C56.0129 102.711 56.0349 102.721 56.0669 102.726C56.1475 102.737 56.2286 102.743 56.3099 102.743C56.4652 102.74 56.6195 102.717 56.7689 102.675C56.7994 102.668 56.8294 102.659 56.8589 102.649C57.0064 102.601 57.1469 102.534 57.2769 102.449C57.2869 102.442 57.2979 102.44 57.3079 102.433L71.2749 92.992L85.2429 102.433C85.2519 102.44 85.2629 102.441 85.2729 102.449C85.4037 102.533 85.5445 102.6 85.6919 102.649C85.7219 102.659 85.7519 102.666 85.7809 102.674C85.9307 102.716 86.0853 102.739 86.2409 102.742V102.742C86.3222 102.742 86.4034 102.736 86.4839 102.725C86.5209 102.72 86.5529 102.707 86.5839 102.7C86.6149 102.693 86.6839 102.678 86.7299 102.665C86.8154 102.64 86.899 102.609 86.9799 102.572C87.0189 102.553 87.0589 102.538 87.0979 102.517C87.2018 102.46 87.2999 102.393 87.3909 102.317C87.4019 102.309 87.4139 102.302 87.4249 102.293C87.5238 102.203 87.6127 102.102 87.6899 101.993C87.6989 101.981 87.7099 101.973 87.7179 101.961C87.7399 101.928 87.7529 101.892 87.7729 101.861C87.8054 101.808 87.8348 101.753 87.8609 101.697C87.8844 101.644 87.9051 101.59 87.9229 101.535C87.9426 101.481 87.9593 101.425 87.9729 101.369C87.986 101.31 87.996 101.25 88.0029 101.19C88.0099 101.136 88.0159 101.082 88.0189 101.027C88.0219 100.972 88.0179 100.892 88.0139 100.826ZM79.9439 68.02L81.3639 78.437L74.1289 72.655L79.9439 68.02ZM71.2669 70.367L64.1439 64.675L71.2639 58.057L78.4079 64.675L71.2669 70.367ZM73.8899 55.618L77.7609 52.018L78.8819 60.241L73.8899 55.618ZM71.2609 53.182L66.2609 48.548H76.2519L71.2609 53.182ZM64.7779 52.049L68.6359 55.621L63.6599 60.246L64.7779 52.049ZM62.5999 68.015L68.3999 72.651L61.1819 78.405L62.5999 68.015ZM71.2629 74.939L80.5839 82.389L71.2709 88.689L61.9359 82.38L71.2629 74.939ZM65.3829 40.575H77.1519L87.0209 44.975H55.3319L65.3829 40.575ZM58.6139 97.24L60.2139 85.524L68.0809 90.842L58.6139 97.24ZM82.3309 85.522L83.9309 97.24L74.4639 90.84L82.3309 85.522Z" fill="white"/>
<path d="M46.7931 54.179H50.5171C50.991 54.179 51.4456 53.9907 51.7807 53.6556C52.1158 53.3205 52.3041 52.866 52.3041 52.392C52.3041 51.9181 52.1158 51.4635 51.7807 51.1284C51.4456 50.7933 50.991 50.605 50.5171 50.605H46.7931C46.3192 50.605 45.8646 50.7933 45.5295 51.1284C45.1944 51.4635 45.0061 51.9181 45.0061 52.392C45.0061 52.866 45.1944 53.3205 45.5295 53.6556C45.8646 53.9907 46.3192 54.179 46.7931 54.179V54.179Z" fill="white"/>
<path d="M50.5459 56.2319H46.8229C46.5882 56.2319 46.3558 56.2782 46.139 56.368C45.9222 56.4578 45.7252 56.5894 45.5593 56.7554C45.3934 56.9213 45.2617 57.1183 45.1719 57.3351C45.0821 57.5519 45.0359 57.7842 45.0359 58.0189C45.0359 58.2536 45.0821 58.486 45.1719 58.7028C45.2617 58.9196 45.3934 59.1166 45.5593 59.2825C45.7252 59.4485 45.9222 59.5801 46.139 59.6699C46.3558 59.7597 46.5882 59.806 46.8229 59.806H50.5459C50.7806 59.806 51.0129 59.7597 51.2298 59.6699C51.4466 59.5801 51.6436 59.4485 51.8095 59.2825C51.9754 59.1166 52.1071 58.9196 52.1969 58.7028C52.2867 58.486 52.3329 58.2536 52.3329 58.0189C52.3329 57.7842 52.2867 57.5519 52.1969 57.3351C52.1071 57.1183 51.9754 56.9213 51.8095 56.7554C51.6436 56.5894 51.4466 56.4578 51.2298 56.368C51.0129 56.2782 50.7806 56.2319 50.5459 56.2319V56.2319Z" fill="white"/>
<path d="M91.6371 54.179H95.3601C95.834 54.179 96.2886 53.9907 96.6237 53.6556C96.9588 53.3205 97.1471 52.866 97.1471 52.392C97.1471 51.9181 96.9588 51.4635 96.6237 51.1284C96.2886 50.7933 95.834 50.605 95.3601 50.605H91.6371C91.1632 50.605 90.7086 50.7933 90.3735 51.1284C90.0384 51.4635 89.8501 51.9181 89.8501 52.392C89.8501 52.866 90.0384 53.3205 90.3735 53.6556C90.7086 53.9907 91.1632 54.179 91.6371 54.179Z" fill="white"/>
<path d="M95.3899 56.2319H91.6659C91.192 56.2319 90.7374 56.4202 90.4023 56.7554C90.0672 57.0905 89.8789 57.545 89.8789 58.0189C89.8789 58.4929 90.0672 58.9474 90.4023 59.2825C90.7374 59.6177 91.192 59.806 91.6659 59.806H95.3899C95.6246 59.806 95.857 59.7597 96.0738 59.6699C96.2906 59.5801 96.4876 59.4485 96.6535 59.2825C96.8194 59.1166 96.9511 58.9196 97.0409 58.7028C97.1307 58.486 97.1769 58.2536 97.1769 58.0189C97.1769 57.7842 97.1307 57.5519 97.0409 57.3351C96.9511 57.1183 96.8194 56.9213 96.6535 56.7554C96.4876 56.5894 96.2906 56.4578 96.0738 56.368C95.857 56.2782 95.6246 56.2319 95.3899 56.2319V56.2319Z" fill="white"/>
<path d="M95.56 99.172H46.787C46.3131 99.172 45.8585 99.3603 45.5234 99.6954C45.1883 100.031 45 100.485 45 100.959C45 101.433 45.1883 101.887 45.5234 102.223C45.8585 102.558 46.3131 102.746 46.787 102.746H95.56C96.0339 102.746 96.4885 102.558 96.8236 102.223C97.1587 101.887 97.347 101.433 97.347 100.959C97.347 100.485 97.1587 100.031 96.8236 99.6954C96.4885 99.3603 96.0339 99.172 95.56 99.172V99.172Z" fill="white"/>
</g>
<defs>
<clipPath id="clip0_9612_51371">
<rect width="142" height="142" fill="white"/>
</clipPath>
</defs>
</svg>
