<svg width="140" height="140" viewBox="0 0 140 140" fill="none" xmlns="http://www.w3.org/2000/svg">
<g clip-path="url(#clip0_9612_51381)">
<path d="M70 140C108.66 140 140 108.66 140 70C140 31.3401 108.66 0 70 0C31.3401 0 0 31.3401 0 70C0 108.66 31.3401 140 70 140Z" fill="#21A58D"/>
<path d="M95.403 102.206H47.236C46.5439 102.205 45.8803 101.93 45.3909 101.44C44.9015 100.951 44.6261 100.287 44.625 99.5951V47.9261C44.6258 47.2338 44.9011 46.5702 45.3906 46.0807C45.8801 45.5912 46.5438 45.3159 47.236 45.3151H63.768C64.0908 45.3151 64.4003 45.4433 64.6286 45.6715C64.8568 45.8998 64.985 46.2093 64.985 46.5321C64.985 46.8548 64.8568 47.1644 64.6286 47.3926C64.4003 47.6209 64.0908 47.7491 63.768 47.7491H47.236C47.1896 47.7506 47.1456 47.7697 47.1129 47.8026C47.0802 47.8355 47.0612 47.8797 47.06 47.9261V99.5951C47.0617 99.6412 47.0808 99.685 47.1135 99.7176C47.1461 99.7502 47.1899 99.7693 47.236 99.7711H95.403C95.449 99.7689 95.4925 99.7496 95.525 99.7171C95.5576 99.6845 95.5768 99.6411 95.579 99.5951V47.9261C95.5775 47.8798 95.5585 47.8358 95.5259 47.8029C95.4932 47.7701 95.4493 47.7508 95.403 47.7491H78.972C78.6492 47.7491 78.3397 47.6209 78.1115 47.3926C77.8832 47.1644 77.755 46.8548 77.755 46.5321C77.755 46.2093 77.8832 45.8998 78.1115 45.6715C78.3397 45.4433 78.6492 45.3151 78.972 45.3151H95.403C96.0952 45.3159 96.7589 45.5912 97.2484 46.0807C97.7379 46.5702 98.0132 47.2338 98.014 47.9261V99.5951C98.0132 100.287 97.7379 100.951 97.2484 101.44C96.7589 101.93 96.0952 102.205 95.403 102.206Z" fill="white"/>
<path d="M95.404 102.831H47.237C46.3789 102.83 45.5562 102.489 44.9493 101.882C44.3425 101.276 44.0011 100.453 44 99.5951V47.9261C44.0011 47.0679 44.3424 46.2452 44.9493 45.6384C45.5561 45.0315 46.3788 44.6901 47.237 44.6891H63.768C64.2567 44.6891 64.7253 44.8832 65.0708 45.2287C65.4164 45.5743 65.6105 46.0429 65.6105 46.5316C65.6105 47.0202 65.4164 47.4889 65.0708 47.8344C64.7253 48.18 64.2567 48.3741 63.768 48.3741H47.685V99.1491H94.954V48.3741H78.972C78.4833 48.3741 78.0147 48.18 77.6692 47.8344C77.3236 47.4889 77.1295 47.0202 77.1295 46.5316C77.1295 46.0429 77.3236 45.5743 77.6692 45.2287C78.0147 44.8832 78.4833 44.6891 78.972 44.6891H95.404C96.2619 44.6904 97.0843 45.0319 97.6907 45.6388C98.2972 46.2456 98.6382 47.0682 98.639 47.9261V99.5951C98.6382 100.453 98.2972 101.275 97.6907 101.882C97.0842 102.489 96.2618 102.83 95.404 102.831V102.831ZM47.237 45.9391C46.7102 45.9396 46.2051 46.1491 45.8326 46.5217C45.46 46.8942 45.2505 47.3993 45.25 47.9261V99.5951C45.2508 100.122 45.4604 100.627 45.8329 100.999C46.2054 101.371 46.7103 101.581 47.237 101.581H95.404C95.9304 101.58 96.435 101.371 96.8071 100.998C97.1792 100.626 97.3885 100.121 97.389 99.5951V47.9261C97.3887 47.3995 97.1796 46.8946 96.8074 46.5221C96.4353 46.1495 95.9306 45.9399 95.404 45.9391H78.972C78.8149 45.9391 78.6642 46.0015 78.553 46.1126C78.4419 46.2237 78.3795 46.3744 78.3795 46.5316C78.3795 46.6887 78.4419 46.8394 78.553 46.9505C78.6642 47.0617 78.8149 47.1241 78.972 47.1241H95.404C95.6152 47.1272 95.8169 47.2125 95.9663 47.3618C96.1156 47.5112 96.2009 47.7129 96.204 47.9241V99.5931C96.2009 99.8043 96.1156 100.006 95.9663 100.155C95.8169 100.305 95.6152 100.39 95.404 100.393H47.237C47.0258 100.39 46.8241 100.305 46.6747 100.155C46.5254 100.006 46.4401 99.8043 46.437 99.5931V47.9261C46.437 47.7139 46.5213 47.5104 46.6713 47.3604C46.8213 47.2104 47.0248 47.1261 47.237 47.1261H63.768C63.9251 47.1261 64.0759 47.0637 64.187 46.9525C64.2981 46.8414 64.3605 46.6907 64.3605 46.5336C64.3605 46.3764 64.2981 46.2257 64.187 46.1146C64.0759 46.0035 63.9251 45.9411 63.768 45.9411L47.237 45.9391Z" fill="white"/>
<path d="M78.7721 51.302H78.7381C78.4154 51.2932 78.1094 51.1565 77.8874 50.9221C77.6654 50.6877 77.5455 50.3748 77.5541 50.052C77.5811 49.075 77.6071 48.0351 77.6061 47.0201C77.6764 45.3688 77.5135 43.7158 77.1221 42.11C76.6848 40.9232 75.894 39.8991 74.8564 39.1757C73.8189 38.4523 72.5845 38.0645 71.3196 38.0645C70.0548 38.0645 68.8204 38.4523 67.7828 39.1757C66.7453 39.8991 65.9545 40.9232 65.5171 42.11C65.1444 43.6938 64.993 45.3217 65.0671 46.9471C65.0601 48.0221 65.0791 49.1081 65.0971 50.0471C65.1003 50.2069 65.072 50.3658 65.0137 50.5146C64.9555 50.6635 64.8685 50.7995 64.7577 50.9147C64.6469 51.0299 64.5145 51.1222 64.3681 51.1863C64.2216 51.2504 64.064 51.2849 63.9041 51.2881H63.8801C63.5615 51.2881 63.2555 51.1632 63.028 50.9401C62.8004 50.7171 62.6694 50.4136 62.6631 50.095C62.6451 49.146 62.6251 48.0411 62.6321 46.9361C62.5434 45.0305 62.7457 43.1226 63.2321 41.2781C63.8406 39.6224 64.9426 38.1933 66.3891 37.1837C67.8357 36.1742 69.5571 35.6329 71.3211 35.6329C73.0851 35.6329 74.8066 36.1742 76.2531 37.1837C77.6997 38.1933 78.8016 39.6224 79.4101 41.2781C79.914 43.1497 80.1275 45.0876 80.0431 47.024C80.0431 48.071 80.0171 49.1301 79.9901 50.1241C79.98 50.4402 79.8472 50.74 79.6198 50.9599C79.3925 51.1797 79.0884 51.3025 78.7721 51.302V51.302Z" fill="white"/>
<path d="M78.7719 51.927H78.7379C78.4948 51.9216 78.2552 51.8683 78.0327 51.7702C77.8102 51.6721 77.6092 51.5311 77.4412 51.3553C77.2732 51.1796 77.1415 50.9724 77.0536 50.7457C76.9657 50.519 76.9233 50.2772 76.9289 50.0341C76.9559 49.0621 76.9819 48.0281 76.9809 47.0201C77.0447 45.4404 76.8947 43.8595 76.5349 42.3201C76.1415 41.2536 75.4307 40.3333 74.4981 39.6833C73.5656 39.0333 72.4562 38.6849 71.3194 38.6849C70.1827 38.6849 69.0733 39.0333 68.1407 39.6833C67.2082 40.3333 66.4973 41.2536 66.1039 42.3201C65.7464 43.8341 65.6077 45.3916 65.6919 46.9451C65.6849 48.0151 65.7039 49.096 65.7229 50.024C65.7266 50.5089 65.539 50.9757 65.2009 51.3232C64.8627 51.6707 64.4013 51.871 63.9165 51.8806C63.4317 51.8902 62.9627 51.7084 62.611 51.3745C62.2594 51.0407 62.0535 50.5817 62.0379 50.0971C62.0199 49.1431 61.9999 48.0321 62.0069 46.9221C61.9159 44.9449 62.1307 42.9656 62.6439 41.054C63.2957 39.2775 64.4773 37.7439 66.0288 36.6605C67.5803 35.5771 69.4271 34.9961 71.3194 34.9961C73.2118 34.9961 75.0585 35.5771 76.6101 36.6605C78.1616 37.7439 79.3431 39.2775 79.9949 41.054C80.526 42.9939 80.752 45.0047 80.6649 47.0141C80.6649 48.0651 80.6399 49.131 80.6139 50.132C80.6037 50.6131 80.4049 51.0708 80.0603 51.4066C79.7157 51.7423 79.253 51.9293 78.7719 51.927V51.927ZM71.3239 37.4351C72.7172 37.4352 74.0768 37.8629 75.2193 38.6603C76.3618 39.4576 77.2322 40.5864 77.7129 41.8941C78.1321 43.5681 78.3079 45.2938 78.2349 47.0181C78.2349 48.0401 78.2099 49.0861 78.1829 50.0681C78.1789 50.2251 78.2372 50.3774 78.3452 50.4915C78.4531 50.6056 78.6019 50.6723 78.7589 50.677L78.7759 51.302V50.677C78.9304 50.6779 79.0791 50.618 79.1898 50.5102C79.3005 50.4025 79.3645 50.2555 79.3679 50.1011C79.3939 49.1121 79.4199 48.0591 79.4189 47.0181C79.5011 45.1547 79.3012 43.2897 78.8259 41.4861C78.2606 39.952 77.2385 38.6282 75.8975 37.6931C74.5564 36.7581 72.9608 36.2568 71.3259 36.2568C69.691 36.2568 68.0955 36.7581 66.7544 37.6931C65.4133 38.6282 64.3912 39.952 63.8259 41.4861C63.3701 43.2639 63.181 45.0996 63.2649 46.9331C63.2579 48.0331 63.2779 49.1331 63.2959 50.0751C63.3045 50.2284 63.3721 50.3724 63.4847 50.4768C63.5973 50.5813 63.746 50.638 63.8995 50.635C64.0531 50.632 64.1994 50.5696 64.3079 50.4609C64.4163 50.3521 64.4784 50.2056 64.4809 50.052C64.4619 49.114 64.4429 48.021 64.4499 46.94C64.3698 45.2433 64.5341 43.544 64.9379 41.8941C65.4192 40.5865 66.2898 39.458 67.4324 38.6607C68.575 37.8634 69.9346 37.4356 71.3279 37.4351H71.3239Z" fill="white"/>
<path d="M71.324 48.675C70.2979 48.6755 69.3034 48.3202 68.51 47.6696C67.7165 47.019 67.1732 46.1134 66.9726 45.1071C66.7719 44.1008 66.9265 43.0561 67.4098 42.151C67.8931 41.2459 68.6753 40.5363 69.6232 40.1433C70.571 39.7503 71.6258 39.6981 72.6078 39.9955C73.5898 40.293 74.4383 40.9218 75.0087 41.7748C75.579 42.6277 75.836 43.6521 75.7358 44.6732C75.6355 45.6944 75.1843 46.6493 74.459 47.3751C74.0485 47.7885 73.5601 48.1163 73.0219 48.3395C72.4837 48.5626 71.9066 48.6767 71.324 48.675V48.675ZM71.324 42.2411C70.8613 42.2412 70.4129 42.4018 70.0553 42.6954C69.6977 42.9891 69.453 43.3977 69.3629 43.8516C69.2728 44.3054 69.3428 44.7765 69.5611 45.1845C69.7794 45.5925 70.1324 45.9122 70.56 46.0891C70.9876 46.266 71.4633 46.2892 71.906 46.1547C72.3488 46.0201 72.7312 45.7363 72.9881 45.3514C73.245 44.9665 73.3604 44.5045 73.3148 44.044C73.2692 43.5835 73.0654 43.1531 72.738 42.826C72.5525 42.6402 72.332 42.4929 72.0894 42.3925C71.8467 42.2921 71.5866 42.2407 71.324 42.2411Z" fill="white"/>
<path d="M71.3241 49.3001C70.1534 49.3 69.019 48.8941 68.1141 48.1514C67.2092 47.4088 66.5897 46.3753 66.3614 45.2271C66.133 44.079 66.3098 42.8871 66.8617 41.8547C67.4135 40.8223 68.3063 40.0132 69.3879 39.5652C70.4694 39.1172 71.6728 39.0581 72.7931 39.398C73.9133 39.7378 74.8811 40.4556 75.5314 41.4289C76.1818 42.4023 76.4746 43.5711 76.3598 44.7361C76.245 45.9011 75.7299 46.9903 74.9021 47.8181C74.4331 48.2891 73.8754 48.6625 73.2613 48.9169C72.6472 49.1713 71.9888 49.3015 71.3241 49.3001V49.3001ZM71.3241 40.4331C70.5707 40.4325 69.8342 40.6554 69.2076 41.0736C68.581 41.4918 68.0925 42.0865 67.8041 42.7824C67.5157 43.4784 67.4402 44.2442 67.5872 44.9831C67.7342 45.722 68.0972 46.4006 68.6301 46.9331C69.3556 47.626 70.3203 48.0126 71.3236 48.0126C72.3269 48.0126 73.2915 47.626 74.0171 46.9331C74.5499 46.4006 74.9128 45.7221 75.0599 44.9833C75.207 44.2446 75.1316 43.4788 74.8433 42.7829C74.555 42.087 74.0667 41.4923 73.4402 41.074C72.8138 40.6557 72.0773 40.4326 71.3241 40.4331V40.4331ZM71.3241 46.8651C70.805 46.865 70.2975 46.711 69.8659 46.4226C69.4343 46.1341 69.0978 45.7242 68.8992 45.2446C68.7005 44.7649 68.6486 44.2372 68.7498 43.728C68.8511 43.2189 69.101 42.7512 69.4681 42.3841C69.9685 41.9074 70.633 41.6416 71.3241 41.6416C72.0151 41.6416 72.6797 41.9074 73.1801 42.3841C73.5471 42.7512 73.7971 43.2189 73.8984 43.728C73.9996 44.2372 73.9476 44.7649 73.749 45.2446C73.5503 45.7242 73.2139 46.1341 72.7823 46.4226C72.3507 46.711 71.8432 46.865 71.3241 46.8651V46.8651ZM71.3241 42.8651C71.0523 42.8652 70.7867 42.9458 70.5608 43.0968C70.3348 43.2477 70.1586 43.4623 70.0545 43.7133C69.9504 43.9643 69.923 44.2405 69.9758 44.5071C70.0286 44.7737 70.1592 45.0187 70.3511 45.2111C70.613 45.461 70.9611 45.6004 71.3231 45.6004C71.6851 45.6004 72.0332 45.461 72.2951 45.2111C72.4874 45.019 72.6183 44.7742 72.6715 44.5076C72.7246 44.2411 72.6975 43.9647 72.5935 43.7136C72.4896 43.4625 72.3135 43.2478 72.0875 43.0968C71.8616 42.9457 71.5959 42.8651 71.3241 42.8651V42.8651Z" fill="white"/>
<path d="M84.7491 59.3251H58.806C58.3814 59.3233 57.9748 59.1534 57.675 58.8527C57.3752 58.5519 57.2066 58.1447 57.2061 57.7201C57.2084 55.5397 58.0756 53.4493 59.6174 51.9075C61.1592 50.3657 63.2496 49.4985 65.4301 49.4961H78.135C80.3154 49.4985 82.4059 50.3657 83.9477 51.9075C85.4894 53.4493 86.3567 55.5397 86.3591 57.7201C86.3588 57.9312 86.3169 58.1402 86.2359 58.3351C86.1548 58.5301 86.0361 58.7071 85.8866 58.8562C85.7371 59.0052 85.5597 59.1234 85.3645 59.2038C85.1693 59.2843 84.9602 59.3255 84.7491 59.3251V59.3251ZM59.6951 56.8901H83.86C83.6583 55.5138 82.9687 54.2557 81.9169 53.3454C80.8651 52.4351 79.5211 51.9332 78.1301 51.9311H65.424C64.0332 51.9334 62.6895 52.4355 61.6378 53.3458C60.5862 54.2561 59.8967 55.5139 59.6951 56.8901Z" fill="white"/>
<path d="M84.7489 59.9491H58.8059C58.2147 59.9483 57.648 59.7131 57.2299 59.2951C56.8119 58.8771 56.5767 58.3103 56.5759 57.7191C56.5786 55.373 57.5117 53.1238 59.1707 51.4648C60.8296 49.8059 63.0788 48.8728 65.4249 48.8701H78.1299C80.476 48.8728 82.7252 49.8059 84.3842 51.4648C86.0431 53.1238 86.9763 55.373 86.9789 57.7191C86.9781 58.3103 86.7429 58.8771 86.3249 59.2951C85.9069 59.7131 85.3401 59.9483 84.7489 59.9491V59.9491ZM65.4239 50.1211C63.4089 50.1232 61.4771 50.9246 60.0522 52.3494C58.6274 53.7743 57.826 55.7061 57.8239 57.7211C57.8242 57.9809 57.9275 58.2301 58.1113 58.4138C58.295 58.5975 58.5441 58.7008 58.8039 58.7011H84.7469C85.0068 58.7008 85.2559 58.5975 85.4396 58.4138C85.6233 58.2301 85.7267 57.9809 85.7269 57.7211C85.7248 55.7061 84.9234 53.7743 83.4986 52.3494C82.0738 50.9246 80.1419 50.1232 78.1269 50.1211H65.4239ZM84.5799 57.5211H58.9729L59.0729 56.8071C59.2993 55.2829 60.064 53.8901 61.2287 52.8812C62.3934 51.8722 63.881 51.3138 65.4219 51.3071H78.1269C79.6678 51.3134 81.1555 51.8718 82.3201 52.8808C83.4847 53.8898 84.2492 55.2828 84.4749 56.8071L84.5799 57.5211ZM60.4679 56.2711H83.0839C82.7654 55.2029 82.1118 54.2654 81.2195 53.5974C80.3272 52.9293 79.2436 52.5659 78.1289 52.5611H65.4239C64.3101 52.5666 63.2275 52.9295 62.3355 53.5965C61.4434 54.2635 60.7891 55.1993 60.4689 56.2661L60.4679 56.2711Z" fill="white"/>
<path d="M83.758 76.343H75.554V78.394H83.758V76.343Z" fill="white"/>
<path d="M83.7581 79.019H75.5581C75.3924 79.0188 75.2336 78.9528 75.1165 78.8357C74.9993 78.7185 74.9334 78.5597 74.9331 78.394V76.343C74.9331 76.1773 74.999 76.0183 75.1162 75.9011C75.2334 75.7839 75.3923 75.718 75.5581 75.718H83.7581C83.9239 75.718 84.0828 75.7839 84.2001 75.9011C84.3173 76.0183 84.3831 76.1773 84.3831 76.343V78.394C84.3828 78.5597 84.3169 78.7185 84.1998 78.8357C84.0826 78.9528 83.9238 79.0188 83.7581 79.019V79.019ZM76.1791 77.769H83.1331V76.969H76.1791V77.769Z" fill="white"/>
<path d="M83.758 82.4951H75.554V84.5461H83.758V82.4951Z" fill="white"/>
<path d="M83.7581 85.1711H75.5581C75.3923 85.1711 75.2334 85.1053 75.1162 84.9881C74.999 84.8708 74.9331 84.7119 74.9331 84.5461V82.4951C74.9331 82.3294 74.999 82.1704 75.1162 82.0532C75.2334 81.936 75.3923 81.8701 75.5581 81.8701H83.7581C83.9239 81.8701 84.0828 81.936 84.2001 82.0532C84.3173 82.1704 84.3831 82.3294 84.3831 82.4951V84.5491C84.3823 84.7144 84.3161 84.8726 84.199 84.9891C84.0819 85.1057 83.9233 85.1711 83.7581 85.1711ZM76.1791 83.9211H83.1331V83.1211H76.1791V83.9211Z" fill="white"/>
<path d="M75.531 68.0221L66.831 76.7221L64.631 74.5221L63.179 75.9741L66.826 79.6211L69.398 77.0501V82.4931H61.198V72.2401H67.352L69.402 70.1901H59.147V84.5491H71.447V75.0041L76.976 69.4751L75.531 68.0221Z" fill="white"/>
<path d="M71.4519 85.1711H59.1519C59.0699 85.1714 58.9885 85.1557 58.9125 85.1246C58.8365 85.0936 58.7674 85.0479 58.7091 84.9901C58.6508 84.9324 58.6044 84.8637 58.5726 84.788C58.5409 84.7123 58.5243 84.6311 58.5239 84.5491V70.19C58.5242 70.0244 58.5901 69.8656 58.7073 69.7484C58.8244 69.6312 58.9832 69.5653 59.1489 69.565H69.4029C69.5265 69.5653 69.6473 69.6022 69.75 69.671C69.8527 69.7398 69.9328 69.8374 69.9801 69.9517C70.0273 70.0659 70.0397 70.1916 70.0157 70.3128C69.9916 70.4341 69.9322 70.5455 69.8449 70.6331L67.7949 72.6831C67.7368 72.741 67.6679 72.7868 67.592 72.8181C67.5162 72.8493 67.4349 72.8653 67.3529 72.8651H61.8239V81.8701H68.7769V78.5611L67.2769 80.0611C67.219 80.1193 67.1502 80.1656 67.0743 80.1972C66.9984 80.2287 66.9171 80.245 66.8349 80.245C66.7528 80.245 66.6714 80.2287 66.5956 80.1972C66.5197 80.1656 66.4508 80.1193 66.3929 80.0611L62.7449 76.4151C62.6869 76.357 62.6408 76.2881 62.6094 76.2123C62.578 76.1364 62.5618 76.0551 62.5618 75.9731C62.5618 75.891 62.578 75.8097 62.6094 75.7338C62.6408 75.658 62.6869 75.5891 62.7449 75.5311L64.1979 74.078C64.317 73.9643 64.4753 73.9009 64.6399 73.9009C64.8046 73.9009 64.9629 73.9643 65.0819 74.078L66.8369 75.8341L75.0939 67.576C75.152 67.518 75.2209 67.4719 75.2967 67.4405C75.3725 67.4091 75.4538 67.3929 75.5359 67.3929C75.618 67.3929 75.6993 67.4091 75.7751 67.4405C75.851 67.4719 75.9199 67.518 75.9779 67.576L77.4289 69.026C77.4871 69.0841 77.5333 69.1531 77.5648 69.229C77.5963 69.305 77.6125 69.3863 77.6125 69.4686C77.6125 69.5508 77.5963 69.6322 77.5648 69.7081C77.5333 69.784 77.4871 69.853 77.4289 69.9111L72.0819 75.2561V84.5491C72.0815 84.6313 72.0649 84.7127 72.033 84.7885C72.0011 84.8643 71.9546 84.933 71.896 84.9908C71.8375 85.0486 71.7682 85.0943 71.6919 85.1252C71.6157 85.1561 71.5342 85.1717 71.4519 85.1711ZM59.7719 83.9211H70.8239V75.0011C70.8239 74.919 70.8401 74.8377 70.8715 74.7619C70.9029 74.686 70.9489 74.6171 71.0069 74.5591L76.0949 69.4731L75.5279 68.9061L67.2709 77.164C67.1532 77.2811 66.994 77.3469 66.8279 77.3471V77.3471C66.7458 77.3471 66.6644 77.3309 66.5885 77.2993C66.5127 77.2677 66.4438 77.2214 66.3859 77.1631L64.6309 75.4071L64.0629 75.9771L66.8259 78.7391L68.9549 76.6091C69.0425 76.5217 69.1541 76.4623 69.2754 76.4383C69.3968 76.4142 69.5225 76.4267 69.6368 76.4741C69.751 76.5215 69.8487 76.6017 69.9174 76.7046C69.9862 76.8074 70.0229 76.9283 70.0229 77.052V82.4951C70.0227 82.6607 69.9567 82.8196 69.8396 82.9367C69.7224 83.0539 69.5636 83.1198 69.3979 83.1201H61.1979C61.0322 83.1201 60.8732 83.0542 60.756 82.937C60.6388 82.8198 60.5729 82.6608 60.5729 82.4951V72.2401C60.5729 72.0743 60.6388 71.9153 60.756 71.7981C60.8732 71.6809 61.0322 71.6151 61.1979 71.6151H67.0919L67.8919 70.815H59.7719V83.9211Z" fill="white"/>
</g>
<defs>
<clipPath id="clip0_9612_51381">
<rect width="140" height="140" fill="white"/>
</clipPath>
</defs>
</svg>
