<svg width="87" height="86" viewBox="0 0 87 86" fill="none" xmlns="http://www.w3.org/2000/svg">
<path d="M43.1107 30.1335L13.0298 18.5945V53.6376C13.0298 56.1132 14.7768 58.3696 17.533 59.483V62.6461C17.533 64.7886 19.0723 66.7413 21.485 67.6649L43.098 75.9565H43.1065H43.115L64.7279 67.6649C67.1449 66.7371 68.6799 64.7844 68.6799 62.6461V59.483C71.4361 58.3696 73.1832 56.1132 73.1832 53.6376V18.5945L43.1022 30.1335H43.1107Z" fill="white"/>
<path style="mix-blend-mode:multiply" d="M43.1104 42.6595L17.5327 32.8496V62.6419C17.5327 64.7844 19.072 66.7371 21.4847 67.6607L43.0977 75.9523H43.1062H43.1146L64.7276 67.6607C67.1446 66.7329 68.6796 64.7802 68.6796 62.6419V32.8496L43.1019 42.6595H43.1104Z" fill="url(#paint0_linear_5382_19200)"/>
<path style="mix-blend-mode:multiply" d="M43.1107 30.1335L13.0298 18.5945V53.6376C13.0298 56.1554 14.8362 58.4539 17.6814 59.542L43.1022 69.2929V69.3013H43.1107H43.1192V69.2929L68.54 59.542C71.381 58.4497 73.1916 56.1554 73.1916 53.6376V18.5945L43.1107 30.1335Z" fill="url(#paint1_linear_5382_19200)"/>
<path style="mix-blend-mode:multiply" d="M43.1101 35.3547L21.8618 27.2065V51.959C21.8618 53.7387 23.1382 55.3583 25.1481 56.1301L43.1059 63.0172H43.1144H43.1229L61.0807 56.1301C63.0863 55.3583 64.3669 53.7387 64.3669 51.959V27.2065L43.1186 35.3589L43.1101 35.3547Z" fill="url(#paint2_linear_5382_19200)"/>
<defs>
<linearGradient id="paint0_linear_5382_19200" x1="29.9611" y1="25.7094" x2="56.7453" y2="72.3536" gradientUnits="userSpaceOnUse">
<stop stop-color="#67B5C2"/>
<stop offset="0.41" stop-color="#65B3C0"/>
<stop offset="0.55" stop-color="#61ACB9"/>
<stop offset="0.66" stop-color="#5BA1AD"/>
<stop offset="0.74" stop-color="#51919C"/>
<stop offset="0.81" stop-color="#447D86"/>
<stop offset="0.88" stop-color="#34636B"/>
<stop offset="0.93" stop-color="#21454A"/>
<stop offset="0.99" stop-color="#0C2226"/>
<stop offset="1" stop-color="#06181B"/>
</linearGradient>
<linearGradient id="paint1_linear_5382_19200" x1="13.0255" y1="55.0715" x2="73.866" y2="19.7564" gradientUnits="userSpaceOnUse">
<stop stop-color="#67B5C2"/>
<stop offset="0.41" stop-color="#65B3C0"/>
<stop offset="0.55" stop-color="#61ACB9"/>
<stop offset="0.66" stop-color="#5BA1AD"/>
<stop offset="0.74" stop-color="#51919C"/>
<stop offset="0.81" stop-color="#447D86"/>
<stop offset="0.88" stop-color="#34636B"/>
<stop offset="0.93" stop-color="#21454A"/>
<stop offset="0.99" stop-color="#0C2226"/>
<stop offset="1" stop-color="#06181B"/>
</linearGradient>
<linearGradient id="paint2_linear_5382_19200" x1="32.187" y1="21.2768" x2="54.4413" y2="60.0257" gradientUnits="userSpaceOnUse">
<stop stop-color="#67B5C2"/>
<stop offset="0.41" stop-color="#65B3C0"/>
<stop offset="0.55" stop-color="#61ACB9"/>
<stop offset="0.66" stop-color="#5BA1AD"/>
<stop offset="0.74" stop-color="#51919C"/>
<stop offset="0.81" stop-color="#447D86"/>
<stop offset="0.88" stop-color="#34636B"/>
<stop offset="0.93" stop-color="#21454A"/>
<stop offset="0.99" stop-color="#0C2226"/>
<stop offset="1" stop-color="#06181B"/>
</linearGradient>
</defs>
</svg>
